<svg id="레이어_1" data-name="레이어 1" xmlns="http://www.w3.org/2000/svg" xmlns:xlink="http://www.w3.org/1999/xlink" viewBox="0 0 229.04 99.86"><defs><style>.cls-1{fill:url(#linear-gradient);}.cls-2{fill:#faaf40;}.cls-3{fill:url(#linear-gradient-2);}.cls-4{fill:url(#linear-gradient-3);}.cls-5{fill:url(#linear-gradient-4);}.cls-6{fill:#646367;}</style><linearGradient id="linear-gradient" x1="28.61" y1="0.84" x2="62.86" y2="52.31" gradientUnits="userSpaceOnUse"><stop offset="0" stop-color="#f9af42"/><stop offset="1" stop-color="#f05a29"/></linearGradient><linearGradient id="linear-gradient-2" x1="172.71" y1="34.08" x2="215.57" y2="93.6" gradientUnits="userSpaceOnUse"><stop offset="0" stop-color="#f9af42"/><stop offset="0.03" stop-color="#f8a740"/><stop offset="0.18" stop-color="#f58b38"/><stop offset="0.34" stop-color="#f37531"/><stop offset="0.51" stop-color="#f1662d"/><stop offset="0.71" stop-color="#f05d2a"/><stop offset="1" stop-color="#f05a29"/></linearGradient><linearGradient id="linear-gradient-3" x1="99.31" y1="40.8" x2="122.42" y2="40.8" xlink:href="#linear-gradient"/><linearGradient id="linear-gradient-4" x1="119.03" y1="43.29" x2="162.18" y2="43.29" xlink:href="#linear-gradient"/></defs><title>Logo_height100</title><path class="cls-1" d="M76,51H64.82a34.83,34.83,0,0,1-12.24-2.77c-5.84-2.75-10.64-8.72-10.64-8.72L14.14,0.15H29s6.54,0.55,11.31,3.29C44.2,5.66,51,15.94,51,15.94Z" transform="translate(-3.97 -0.15)"/><path class="cls-2" d="M77.44,51H84.5a13.53,13.53,0,0,0,4.74-1.07,13.78,13.78,0,0,0,4.11-3.37L104.1,31.3h-2.57s-5.95-.17-9.91,2.62-8.41,8.87-8.41,8.87Z" transform="translate(-3.97 -0.15)"/><path class="cls-3" d="M159.66,33.78h11.12a30.07,30.07,0,0,1,13.11,3.33,35.22,35.22,0,0,1,9.84,8.74L233,100h-15.1s-7.76.17-11.56-3.32a67.15,67.15,0,0,1-8-9.5Z" transform="translate(-3.97 -0.15)"/><path class="cls-4" d="M99.31,50.16H112.5a8.51,8.51,0,0,0,3.09-.6,5,5,0,0,0,1.94-1.68l4.9-7.06-6.5-9.35h-0.57a5.45,5.45,0,0,0-2.58.41,5.29,5.29,0,0,0-1.9,1.71Z" transform="translate(-3.97 -0.15)"/><path class="cls-5" d="M151,55.12a4.94,4.94,0,0,0,1.75-.65,6.31,6.31,0,0,0,1.77-1.9l7.63-10.9-5.43-7.91-10.31,14.7-7.29-10.31a16,16,0,0,0-4.77-5c-3-1.93-7.61-1.76-7.61-1.76H119l13,18.38a14.73,14.73,0,0,0,4.84,4.1,13.07,13.07,0,0,0,5.95,1.2" transform="translate(-3.97 -0.15)"/><path class="cls-6" d="M9.77,79.23L9.13,77.17,4.07,63H6.42l0.37,1.28c0.09,0.28.18,0.55,0.27,0.83l4.22,12.34,6-12.29q0.2-.42.4-0.85c0.13-.29.32-0.73,0.57-1.31h2.41q-1.12,2-2.85,5.43l-3.07,6q-1.34,2.61-2.31,4.73l-1.33,0Z" transform="translate(-3.97 -0.15)"/><path class="cls-6" d="M20.67,79.23l0.21-3,0.23-5.1,0.1-3.93h2.16q-0.13,1.85-.24,3.87t-0.18,4.42q-0.07,2.4-.07,3.72l-1.07,0Zm0.55-14.6c0-.74,0-1.3,0-1.68l1.15,0,1.14,0c0,0.25,0,.81-0.07,1.68H21.22Z" transform="translate(-3.97 -0.15)"/><path class="cls-6" d="M24.92,79l-0.07-.87c0-.09,0-0.4-0.09-0.91a8.54,8.54,0,0,0,3.37.79,3.81,3.81,0,0,0,1.36-.21,1.7,1.7,0,0,0,.84-0.63,1.56,1.56,0,0,0,.28-0.87,1.66,1.66,0,0,0-.08-0.5,1.81,1.81,0,0,0-.23-0.48,3,3,0,0,0-.46-0.51q-0.3-.28-1.26-1t-1.45-1.2a6.32,6.32,0,0,1-.84-0.89,3.4,3.4,0,0,1-.52-0.92,2.76,2.76,0,0,1-.16-0.94,2.59,2.59,0,0,1,.48-1.47,2.86,2.86,0,0,1,1.39-1.06,5.91,5.91,0,0,1,2.13-.35,15.68,15.68,0,0,1,3,.32q0,0.92.12,1.69a6.89,6.89,0,0,0-2.62-.54,4.42,4.42,0,0,0-1.3.18,1.68,1.68,0,0,0-.88.55,1.31,1.31,0,0,0-.28.81,1.56,1.56,0,0,0,.09.55,2.07,2.07,0,0,0,.34.56,4.9,4.9,0,0,0,.59.6Q29,72,30,72.78A16.92,16.92,0,0,1,31.44,74a5.57,5.57,0,0,1,.65.8,3.17,3.17,0,0,1,.4.83,2.85,2.85,0,0,1,.12.84A2.66,2.66,0,0,1,32.12,78a3.13,3.13,0,0,1-1.46,1.1,5.79,5.79,0,0,1-2.18.39c-0.34,0-.74,0-1.2-0.07s-0.85-.1-1.17-0.15S25.39,79.13,24.92,79Z" transform="translate(-3.97 -0.15)"/><path class="cls-6" d="M45.79,79.23l-1,0-1,0,0.06-2.29a7.54,7.54,0,0,1-.49.82,3.52,3.52,0,0,1-.52.57,3.78,3.78,0,0,1-.64.47,4.1,4.1,0,0,1-.76.34,7,7,0,0,1-1,.25,7.4,7.4,0,0,1-1.25.1,6.27,6.27,0,0,1-2.47-.44,3.38,3.38,0,0,1-1.55-1.25,4,4,0,0,1-.53-2.21c0-.14,0-0.38,0-0.72s0-.78.07-1.33l0.2-3.95,0-1.27q0-.44,0-1.11h2.11q-0.17,2.08-.32,4.54t-0.15,3.15A3.5,3.5,0,0,0,37,76.58a2.22,2.22,0,0,0,1.13,1,4.55,4.55,0,0,0,1.79.34,4.66,4.66,0,0,0,1.68-.31,3.49,3.49,0,0,0,1.16-.74,4.13,4.13,0,0,0,.86-1.32A6.34,6.34,0,0,0,44,74q0.08-.68.17-2.43,0.09-2.13.13-4.34h2.1Q46.18,69.35,46,73.7,45.83,76.1,45.79,79.23Z" transform="translate(-3.97 -0.15)"/><path class="cls-6" d="M49.13,69.13c0.07-.35.15-0.86,0.23-1.54a20.57,20.57,0,0,1,2.47-.5,15.93,15.93,0,0,1,2-.14,9.69,9.69,0,0,1,2,.19,4.09,4.09,0,0,1,1.55.64,2.12,2.12,0,0,1,.82,1,3.63,3.63,0,0,1,.2,1.22c0,0.55,0,1.46-.12,2.75s-0.14,2.47-.19,3.57-0.07,2.07-.07,2.92l-1,0-1.08,0L56.19,76l0.18-3.83c-0.28.21-.48,0.36-0.62,0.45a3.36,3.36,0,0,1-.47.24,6,6,0,0,1-.57.21l-1.22.35c-0.61.16-1,.29-1.29,0.38a7.43,7.43,0,0,0-1.29.52,3.81,3.81,0,0,0-.8.57,1.94,1.94,0,0,0-.45.62,2.07,2.07,0,0,0-.16.79,1.73,1.73,0,0,0,.38,1.11,2,2,0,0,0,1,.66,4.55,4.55,0,0,0,1.38.18,8.42,8.42,0,0,0,1-.07,9.16,9.16,0,0,0,1.46-.36,12.2,12.2,0,0,0-.38,1.41,12.82,12.82,0,0,1-1.41.21c-0.36,0-.71,0-1,0a6.79,6.79,0,0,1-2.54-.38A2.72,2.72,0,0,1,48,78a3.29,3.29,0,0,1-.45-1.69,2.92,2.92,0,0,1,.16-1,3.11,3.11,0,0,1,.43-0.82,3.61,3.61,0,0,1,.78-0.73A5.55,5.55,0,0,1,50,73.12q0.55-.24,1.29-0.47T53.62,72c0.35-.08.64-0.16,0.89-0.24l0.65-.24a2.35,2.35,0,0,0,.5-0.28A2,2,0,0,0,56,70.88a1.69,1.69,0,0,0,.26-0.47,1.46,1.46,0,0,0,.08-0.48,1.42,1.42,0,0,0-.38-1,2,2,0,0,0-1-.58,5.56,5.56,0,0,0-1.44-.17,10.66,10.66,0,0,0-1.59.12,10.84,10.84,0,0,0-1.4.3C50.21,68.72,49.72,68.9,49.13,69.13Z" transform="translate(-3.97 -0.15)"/><path class="cls-6" d="M60.68,79.23q0.24-3.66.46-8.66,0.16-3.64.23-7.53h2.16l-0.37,7L62.9,77l0,2.18-1,0Z" transform="translate(-3.97 -0.15)"/><path class="cls-6" d="M70.92,79.23L71.17,77l0.74-8.84L72.27,63h3.05l0.27,1q0.12,0.42.3,1t0.62,1.86L78,71.12l1.81,5.65,2.36-5.65L84.83,65q0.14-.33.28-0.71L85.54,63h3.12L88.51,68.7l-0.06,3.71c0,0.35,0,.7,0,1V77.7c0,0.18,0,.68,0,1.53l-1,0-1.08,0,0.07-1.51,0.18-8.54q0-1.43,0-3.19V65l-5.2,12.49-0.69,1.72-1.08,0-1.14,0L77.1,74.76l-1.46-4.4L74.2,66.11c-0.06-.19-0.17-0.53-0.32-1l-0.15,1.39L73,76.68c0,0.34,0,.68,0,1s0,0.85,0,1.53l-1,0Z" transform="translate(-3.97 -0.15)"/><path class="cls-6" d="M100.94,77.35q-0.14.65-.28,1.66a16.55,16.55,0,0,1-2,.39,13.93,13.93,0,0,1-1.67.1,9.2,9.2,0,0,1-2.66-.36,4.57,4.57,0,0,1-2-1.24,5.21,5.21,0,0,1-1.21-2,7.79,7.79,0,0,1-.37-2.41,7.94,7.94,0,0,1,.68-3.28,5.33,5.33,0,0,1,2-2.38,6.3,6.3,0,0,1,3.44-.86,6.74,6.74,0,0,1,2.07.31,4,4,0,0,1,1.64,1,4.32,4.32,0,0,1,1,1.58,5.8,5.8,0,0,1,.36,2.06,4.84,4.84,0,0,1-.07.83h-9q0,0.65,0,1a5.08,5.08,0,0,0,.52,2.3,3.53,3.53,0,0,0,1.54,1.59,5,5,0,0,0,2.35.54A11.76,11.76,0,0,0,100.94,77.35Zm-8-5.65H100a6.68,6.68,0,0,0-.09-1.16,3.28,3.28,0,0,0-.31-0.86A2.45,2.45,0,0,0,99,68.91a2.67,2.67,0,0,0-.93-0.5,3.85,3.85,0,0,0-1.17-.17,4.3,4.3,0,0,0-1.29.19,3.77,3.77,0,0,0-1.08.52,3.46,3.46,0,0,0-.79.78,3.77,3.77,0,0,0-.49.86A8,8,0,0,0,92.94,71.7Z" transform="translate(-3.97 -0.15)"/><path class="cls-6" d="M114.61,79.26l-1,0h-1l0.14-2.56a10.61,10.61,0,0,1-.65,1,4.5,4.5,0,0,1-.65.68,4.72,4.72,0,0,1-.87.57,4.66,4.66,0,0,1-1.1.4,5.8,5.8,0,0,1-3.43-.27,4.69,4.69,0,0,1-1.7-1.19,4.61,4.61,0,0,1-1-1.8A7.32,7.32,0,0,1,103,74a7.8,7.8,0,0,1,.58-2.94,6.26,6.26,0,0,1,1.64-2.39,5.93,5.93,0,0,1,2.4-1.31,10.66,10.66,0,0,1,2.85-.37,15.65,15.65,0,0,1,2.48.24Q113,65.89,113,65q0-1.23,0-2h2.16l-0.34,6.7-0.24,7.67v1.84ZM112.9,68.67a7.41,7.41,0,0,0-1.21-.27,8.58,8.58,0,0,0-1-.06,7.17,7.17,0,0,0-2.18.33,4.67,4.67,0,0,0-1.83,1.07,4.94,4.94,0,0,0-1.21,1.9,6.45,6.45,0,0,0-.43,2.26,5.21,5.21,0,0,0,.4,2.06,3.17,3.17,0,0,0,1.25,1.49,3.59,3.59,0,0,0,2,.54,3.91,3.91,0,0,0,1.23-.18,3.3,3.3,0,0,0,1-.54,4.13,4.13,0,0,0,.86-1,5.15,5.15,0,0,0,.64-1.4,9.94,9.94,0,0,0,.3-1.89c0-.39.07-1.14,0.11-2.24Z" transform="translate(-3.97 -0.15)"/><path class="cls-6" d="M117.25,79.23l0.21-3,0.23-5.1,0.1-3.93h2.16q-0.13,1.85-.24,3.87t-0.18,4.42q-0.06,2.4-.07,3.72l-1.07,0Zm0.55-14.6q0-1.11,0-1.68L119,63l1.14,0q0,0.37-.07,1.68H117.8Z" transform="translate(-3.97 -0.15)"/><path class="cls-6" d="M122.82,69.13c0.07-.35.15-0.86,0.23-1.54a20.58,20.58,0,0,1,2.47-.5,15.92,15.92,0,0,1,2-.14,9.68,9.68,0,0,1,2,.19,4.09,4.09,0,0,1,1.55.64,2.12,2.12,0,0,1,.82,1,3.63,3.63,0,0,1,.2,1.22c0,0.55,0,1.46-.12,2.75s-0.15,2.47-.19,3.57-0.07,2.07-.07,2.92l-1,0-1.08,0L129.88,76l0.18-3.83q-0.42.32-.62,0.45a3.19,3.19,0,0,1-.47.24,5.68,5.68,0,0,1-.57.21l-1.22.35c-0.61.16-1,.29-1.29,0.38a7.45,7.45,0,0,0-1.29.52,3.82,3.82,0,0,0-.8.57,1.93,1.93,0,0,0-.45.62,2.05,2.05,0,0,0-.16.79,1.74,1.74,0,0,0,.38,1.11,2,2,0,0,0,1,.66,4.56,4.56,0,0,0,1.38.18,8.39,8.39,0,0,0,1-.07,9.09,9.09,0,0,0,1.46-.36,12.6,12.6,0,0,0-.38,1.41,12.78,12.78,0,0,1-1.41.21c-0.36,0-.71,0-1,0a6.78,6.78,0,0,1-2.54-.38A2.72,2.72,0,0,1,121.68,78a3.3,3.3,0,0,1-.45-1.69,2.92,2.92,0,0,1,.16-1,3.2,3.2,0,0,1,.43-0.82,3.63,3.63,0,0,1,.78-0.73,5.56,5.56,0,0,1,1.05-.61c0.37-.16.8-0.31,1.29-0.47s1.28-.36,2.36-0.62q0.52-.12.89-0.24l0.65-.24a2.31,2.31,0,0,0,.5-0.28,2,2,0,0,0,.39-0.39,1.72,1.72,0,0,0,.26-0.47,1.46,1.46,0,0,0,.08-0.48,1.42,1.42,0,0,0-.38-1,2,2,0,0,0-1-.58,5.55,5.55,0,0,0-1.44-.17,10.63,10.63,0,0,0-1.59.12,10.79,10.79,0,0,0-1.4.3Q123.69,68.78,122.82,69.13Z" transform="translate(-3.97 -0.15)"/><path class="cls-6" d="M140,79.23q0.27-3.06.47-7.48T140.73,63h2.35l-0.38,7.51-0.29,7.09h2.25l3.54,0c0.68,0,1.35,0,2-.08q-0.07.75-.12,1.67l-4.76,0Z" transform="translate(-3.97 -0.15)"/><path class="cls-6" d="M151.93,69.13c0.07-.35.15-0.86,0.23-1.54a20.52,20.52,0,0,1,2.47-.5,15.94,15.94,0,0,1,2-.14,9.69,9.69,0,0,1,2,.19,4.11,4.11,0,0,1,1.55.64,2.11,2.11,0,0,1,.82,1,3.64,3.64,0,0,1,.2,1.22c0,0.55,0,1.46-.12,2.75s-0.15,2.47-.19,3.57-0.07,2.07-.07,2.92l-1,0-1.08,0L159,76l0.18-3.83c-0.28.21-.48,0.36-0.62,0.45a3.35,3.35,0,0,1-.47.24,5.83,5.83,0,0,1-.57.21l-1.22.35c-0.61.16-1,.29-1.29,0.38a7.51,7.51,0,0,0-1.29.52,3.8,3.8,0,0,0-.8.57,2,2,0,0,0-.45.62,2.08,2.08,0,0,0-.16.79,1.73,1.73,0,0,0,.38,1.11,2,2,0,0,0,1,.66,4.55,4.55,0,0,0,1.38.18,8.42,8.42,0,0,0,1-.07,9.12,9.12,0,0,0,1.46-.36,12.5,12.5,0,0,0-.38,1.41,12.78,12.78,0,0,1-1.41.21c-0.36,0-.71,0-1,0a6.78,6.78,0,0,1-2.54-.38A2.71,2.71,0,0,1,150.79,78a3.29,3.29,0,0,1-.45-1.69,2.92,2.92,0,0,1,.16-1,3.12,3.12,0,0,1,.43-0.82,3.62,3.62,0,0,1,.78-0.73,5.52,5.52,0,0,1,1.06-.61c0.37-.16.8-0.31,1.29-0.47s1.28-.36,2.36-0.62c0.35-.08.64-0.16,0.89-0.24l0.65-.24a2.36,2.36,0,0,0,.5-0.28,1.94,1.94,0,0,0,.39-0.39,1.69,1.69,0,0,0,.26-0.47,1.46,1.46,0,0,0,.08-0.48,1.42,1.42,0,0,0-.38-1,2,2,0,0,0-1-.58,5.57,5.57,0,0,0-1.44-.17,10.63,10.63,0,0,0-1.58.12,10.81,10.81,0,0,0-1.4.3C153,68.72,152.52,68.9,151.93,69.13Z" transform="translate(-3.97 -0.15)"/><path class="cls-6" d="M163.53,79.23l0.1-1.33c0-.24,0-0.68.07-1.34l0.33-8L164.18,63h2.18q-0.17,1.51-.3,4.36c0.83-.18,1.51-0.3,2-0.37a12.9,12.9,0,0,1,1.57-.09,8.37,8.37,0,0,1,2.63.38,4.11,4.11,0,0,1,1.88,1.26,5.26,5.26,0,0,1,1.05,1.93,8,8,0,0,1,.31,2.24,9.15,9.15,0,0,1-.38,2.62A6.78,6.78,0,0,1,174,77.61,4.47,4.47,0,0,1,172.21,79a6.09,6.09,0,0,1-2.36.45,5.3,5.3,0,0,1-1.29-.15,4.7,4.7,0,0,1-1.09-.41,3.66,3.66,0,0,1-.83-0.59,4.16,4.16,0,0,1-.56-0.67,7.6,7.6,0,0,1-.49-0.91l0,2.47-1,0ZM165.95,69q-0.08,2-.12,2.6t0,1.51a7.53,7.53,0,0,0,.43,2.86,3.12,3.12,0,0,0,1.28,1.51,3.69,3.69,0,0,0,1.93.51,3.64,3.64,0,0,0,2.14-.63,4,4,0,0,0,1.4-1.92,7.35,7.35,0,0,0,.5-2.68,4.64,4.64,0,0,0-1-3.15,3.9,3.9,0,0,0-3.12-1.2,9.57,9.57,0,0,0-1.5.12A14,14,0,0,0,165.95,69Z" transform="translate(-3.97 -0.15)"/><path class="cls-6" d="M6.33,90.64L4.65,85.7,4.22,84.46Q4.14,84.23,4,83.78h0.5l0.26,0.9,1.86,5.57,0.25-.47,1.78-3.55q-0.27-.84-0.47-1.39L7.78,83.78H8.2q0.29,1,.64,2l0.88-2h0.46L9.54,85.07Q9.28,85.6,9,86.22l0.08,0.26,1.14,3.34,0.17,0.46,0.31-.61L11,88.94l2.14-4.58,0.26-.58h0.46q-0.28.54-1.11,2.29l-1.29,2.7c-0.31.63-.59,1.26-0.86,1.88H10.1l-0.56-1.7L8.78,86.68l-0.13.25c0,0.06-.12.23-0.24,0.48L6.8,90.64H6.33Z" transform="translate(-3.97 -0.15)"/><path class="cls-6" d="M14.19,90.64q0.12-2.16.18-4t0.06-2.81h0.44L14.74,87H19.4l0.09-2.52c0-.14,0-0.37,0-0.69h0.44q-0.19,3.11-.27,6.86H19.24q0.12-1.75.15-3.34H14.72l-0.08,2.47v0.87H14.19Z" transform="translate(-3.97 -0.15)"/><path class="cls-6" d="M21.15,90.64q0.09-1.36.17-3.51t0.08-3.34h3.93c0,0.13,0,.25,0,0.36l-0.4,0-0.54,0H21.79L21.69,87l1.39,0,1.86,0c0,0.1,0,.21,0,0.33l-1.89,0-1.35,0-0.1,3h2.62l0.9,0a2.92,2.92,0,0,0,0,.36H21.15Z" transform="translate(-3.97 -0.15)"/><path class="cls-6" d="M26.28,90.64l0.08-1.21,0.14-3.78,0-1.07V83.78h2.15a2.19,2.19,0,0,1,1,.19,1.34,1.34,0,0,1,.51.54,1.66,1.66,0,0,1,.19.8,2,2,0,0,1-.28,1,1.86,1.86,0,0,1-.78.72,2.49,2.49,0,0,1-1.13.25H28l2.4,3.35H29.87l-0.66-1L27.3,86.93a4.39,4.39,0,0,0,.77.08,2.77,2.77,0,0,0,.77-0.11,1.8,1.8,0,0,0,.64-0.33A1.47,1.47,0,0,0,29.9,86,1.68,1.68,0,0,0,30,85.33,1.54,1.54,0,0,0,30,84.86a1,1,0,0,0-.23-0.39,1,1,0,0,0-.32-0.24,1.7,1.7,0,0,0-.42-0.1,4.48,4.48,0,0,0-.54,0H26.94q-0.17,4-.19,6.55H26.28Z" transform="translate(-3.97 -0.15)"/><path class="cls-6" d="M31.24,90.64q0.09-1.36.17-3.51t0.08-3.34h3.93c0,0.13,0,.25,0,0.36l-0.4,0-0.54,0H31.88L31.78,87l1.39,0L35,87c0,0.1,0,.21,0,0.33l-1.89,0-1.35,0-0.1,3h2.62l0.9,0a2.92,2.92,0,0,0,0,.36H31.24Z" transform="translate(-3.97 -0.15)"/><path class="cls-6" d="M43.74,90.1a3.18,3.18,0,0,0-.06.41,7.43,7.43,0,0,1-1,.18,7.29,7.29,0,0,1-.81.05,4.1,4.1,0,0,1-1.39-.24,3.09,3.09,0,0,1-1.13-.7,2.85,2.85,0,0,1-.69-1.1,4.09,4.09,0,0,1-.22-1.34,4.53,4.53,0,0,1,.26-1.52,3,3,0,0,1,1.95-1.94,4.64,4.64,0,0,1,1.48-.23l0.58,0,0.51,0.05,0.53,0.1a4,4,0,0,0,0,.43,6.15,6.15,0,0,0-1-.24A5.34,5.34,0,0,0,42.09,84a3.9,3.9,0,0,0-1.25.2,2.75,2.75,0,0,0-1.06.65,2.91,2.91,0,0,0-.7,1.1,3.82,3.82,0,0,0-.24,1.35,4,4,0,0,0,.2,1.28,2.55,2.55,0,0,0,.61,1,2.72,2.72,0,0,0,1,.62,3.49,3.49,0,0,0,1.24.21A6.18,6.18,0,0,0,43.74,90.1Z" transform="translate(-3.97 -0.15)"/><path class="cls-6" d="M44.71,90.64l0.08-1.21,0.14-3.78,0-1.07V83.78H47.1a2.2,2.2,0,0,1,1,.19,1.35,1.35,0,0,1,.51.54,1.65,1.65,0,0,1,.19.8,2,2,0,0,1-.28,1,1.87,1.87,0,0,1-.78.72,2.48,2.48,0,0,1-1.13.25H46.41l2.4,3.35H48.3l-0.66-1-1.91-2.71a4.4,4.4,0,0,0,.77.08,2.77,2.77,0,0,0,.77-0.11,1.8,1.8,0,0,0,.64-0.33A1.45,1.45,0,0,0,48.32,86a1.68,1.68,0,0,0,.15-0.71,1.54,1.54,0,0,0-.07-0.48,1,1,0,0,0-.23-0.39,1,1,0,0,0-.32-0.24,1.71,1.71,0,0,0-.42-0.1,4.51,4.51,0,0,0-.54,0H45.37q-0.17,4-.19,6.55H44.71Z" transform="translate(-3.97 -0.15)"/><path class="cls-6" d="M49.66,90.64c0.06-.91.12-2.08,0.17-3.51s0.08-2.55.08-3.34h3.93a3.32,3.32,0,0,0,0,.36l-0.4,0-0.54,0H50.31L50.21,87l1.39,0,1.86,0a3,3,0,0,0,0,.33l-1.89,0-1.35,0-0.1,3h2.62l0.9,0a2.9,2.9,0,0,0,0,.36H49.66Z" transform="translate(-3.97 -0.15)"/><path class="cls-6" d="M53.88,90.64l1.68-3.3L57,84.41l0.31-.63H57.9l1,2.76,1.48,4.09H59.9c-0.09-.32-0.27-0.85-0.53-1.59s-0.46-1.3-.61-1.68H55.93l-1.58,3.27H53.88Zm2.2-3.6h2.57l-1.07-2.95Z" transform="translate(-3.97 -0.15)"/><path class="cls-6" d="M62.51,90.64l0.08-1.25,0.2-5.3q-1.24,0-2.16,0a3,3,0,0,0,0-.36h4.69a2.87,2.87,0,0,0,0,.36q-0.61,0-1.85,0H63.16L63,89.62c0,0.08,0,.15,0,0.23v0.78H62.51Z" transform="translate(-3.97 -0.15)"/><path class="cls-6" d="M65.75,90.64l0.11-2,0.1-3,0-1c0-.28,0-0.54,0-0.78h0.45L66.35,85.6l-0.12,3.74,0,1.3H65.75Z" transform="translate(-3.97 -0.15)"/><path class="cls-6" d="M69.64,90.64l-0.18-.57-0.1-.34-0.29-.81-1.86-5.14h0.45L68,84.71l2,5.62L72.67,85l0.26-.54q0.12-.24.3-0.64h0.47q-0.45.81-1.18,2.24l-1.32,2.57q-0.59,1.14-1,2H69.64Z" transform="translate(-3.97 -0.15)"/><path class="cls-6" d="M73.91,90.64l0.11-2,0.1-3,0-1c0-.28,0-0.54,0-0.78H74.6L74.51,85.6l-0.12,3.74,0,1.3H73.91Z" transform="translate(-3.97 -0.15)"/><path class="cls-6" d="M77.14,90.64l0.08-1.25,0.2-5.3q-1.24,0-2.16,0a3,3,0,0,0,0-.36H80a2.87,2.87,0,0,0,0,.36q-0.61,0-1.85,0H77.8l-0.2,5.54c0,0.08,0,.15,0,0.23v0.78H77.14Z" transform="translate(-3.97 -0.15)"/><path class="cls-6" d="M81.69,90.64l0.15-2.17,0-.93-0.67-1.2-1.49-2.55h0.45l0.22,0.41,0.42,0.73,1.3,2.26,1.2-1.8L84,84.23l0.28-.45h0.46l-2.53,3.77c0,0.16,0,.32,0,0.47l-0.07,1.29c0,0.19,0,.4,0,0.63v0.7H81.69Z" transform="translate(-3.97 -0.15)"/><path class="cls-6" d="M87.26,90.64l0.11-.93L87.66,86l0.16-2.24h0.65l0.22,0.68,0.4,1.13,1.32,3.69,0.36,1,2.65-5.87,0.25-.6h0.65l0,2.91q0,1,0,1.46c0,1,0,1.88,0,2.49H93.81l0.09-4.42c0-.53,0-1,0-1.41V84.14L93.06,86l-2,4.62H90.49L88.3,84.58l-0.16-.4-0.06.59c0,0.16,0,.5-0.07,1l-0.27,3.7c0,0.16,0,.31,0,0.47s0,0.4,0,.71H87.26Z" transform="translate(-3.97 -0.15)"/><path class="cls-6" d="M95.62,90.64q0.09-1.36.17-3.51t0.08-3.34H99.8c0,0.13,0,.25,0,0.36l-0.4,0-0.54,0H96.27L96.17,87l1.39,0,1.86,0c0,0.1,0,.21,0,0.33l-1.89,0-1.35,0-0.1,3h2.62l0.9,0a2.92,2.92,0,0,0,0,.36H95.62Z" transform="translate(-3.97 -0.15)"/><path class="cls-6" d="M100.75,90.64q0.09-1.36.17-3.51T101,83.78h3.93a3.36,3.36,0,0,0,0,.36l-0.4,0-0.54,0H101.4L101.3,87l1.39,0,1.86,0a3,3,0,0,0,0,.33l-1.89,0-1.35,0-0.1,3h2.62l0.9,0a2.9,2.9,0,0,0,0,.36h-3.92Z" transform="translate(-3.97 -0.15)"/><path class="cls-6" d="M107.23,90.64l0.08-1.25,0.2-5.3q-1.24,0-2.16,0a3,3,0,0,0,0-.36h4.69a2.63,2.63,0,0,0,0,.36q-0.61,0-1.85,0h-0.29l-0.2,5.54c0,0.08,0,.15,0,0.23v0.78h-0.45Z" transform="translate(-3.97 -0.15)"/><path class="cls-6" d="M110.11,90.43a3.8,3.8,0,0,0,0-.45,4.09,4.09,0,0,0,1.74.45,2.14,2.14,0,0,0,.81-0.14,1.22,1.22,0,0,0,.56-0.43,1.13,1.13,0,0,0,.2-0.66,1,1,0,0,0-.06-0.35,1.29,1.29,0,0,0-.2-0.34c-0.09-.12-0.23-0.27-0.41-0.45s-0.5-.47-1-0.85l-0.4-.33c-0.14-.12-0.27-0.24-0.4-0.37a3.78,3.78,0,0,1-.32-0.37,1.91,1.91,0,0,1-.19-0.3,1.38,1.38,0,0,1-.1-0.29,1.64,1.64,0,0,1,0-.33,1.4,1.4,0,0,1,.22-0.76,1.5,1.5,0,0,1,.66-0.56,2.59,2.59,0,0,1,1.11-.21,6.76,6.76,0,0,1,1.19.13,3.18,3.18,0,0,0,0,.42,5.58,5.58,0,0,0-.77-0.2,3.59,3.59,0,0,0-.58-0.05,1.82,1.82,0,0,0-.82.16,1.25,1.25,0,0,0-.5.44,1,1,0,0,0-.18.58,1,1,0,0,0,.05.31,1.09,1.09,0,0,0,.16.31,3.09,3.09,0,0,0,.3.35l0.45,0.43,0.69,0.62L113,87.72a4,4,0,0,1,.34.34,2,2,0,0,1,.26.36,1.55,1.55,0,0,1,.15.37,1.63,1.63,0,0,1,0,.4,1.46,1.46,0,0,1-.24.83,1.48,1.48,0,0,1-.7.54,2.86,2.86,0,0,1-1,.18,4.59,4.59,0,0,1-.72-0.06A6.53,6.53,0,0,1,110.11,90.43Z" transform="translate(-3.97 -0.15)"/><path class="cls-6" d="M118.43,90.64l0.08-1.25,0.2-5.3q-1.24,0-2.16,0a3,3,0,0,0,0-.36h4.69a2.87,2.87,0,0,0,0,.36q-0.61,0-1.85,0h-0.29l-0.2,5.54c0,0.08,0,.15,0,0.23v0.78h-0.45Z" transform="translate(-3.97 -0.15)"/><path class="cls-6" d="M121.67,90.64q0.09-1.36.17-3.51t0.08-3.34h3.93c0,0.13,0,.25,0,0.36l-0.4,0-0.54,0h-2.57L122.22,87l1.39,0,1.86,0c0,0.1,0,.21,0,0.33l-1.89,0-1.35,0-0.1,3h2.62l0.9,0a2.92,2.92,0,0,0,0,.36h-3.92Z" transform="translate(-3.97 -0.15)"/><path class="cls-6" d="M131.86,90.1a3.28,3.28,0,0,0-.06.41,7.43,7.43,0,0,1-1,.18,7.29,7.29,0,0,1-.81.05,4.1,4.1,0,0,1-1.39-.24,3.09,3.09,0,0,1-1.13-.7,2.85,2.85,0,0,1-.69-1.1,4.09,4.09,0,0,1-.22-1.34,4.54,4.54,0,0,1,.26-1.52,3,3,0,0,1,1.95-1.94,4.64,4.64,0,0,1,1.48-.23l0.58,0,0.51,0.05,0.53,0.1a4,4,0,0,0,0,.43,6.15,6.15,0,0,0-1-.24,5.34,5.34,0,0,0-.77-0.06,3.91,3.91,0,0,0-1.25.2,2.75,2.75,0,0,0-1.06.65,2.93,2.93,0,0,0-.7,1.1,3.85,3.85,0,0,0-.24,1.35,4,4,0,0,0,.2,1.28,2.55,2.55,0,0,0,.61,1,2.71,2.71,0,0,0,1,.62,3.5,3.5,0,0,0,1.24.21A6.18,6.18,0,0,0,131.86,90.1Z" transform="translate(-3.97 -0.15)"/><path class="cls-6" d="M132.82,90.64q0.12-2.16.18-4t0.06-2.81h0.44L133.37,87H138l0.09-2.52q0-.21,0-0.69h0.44q-0.19,3.11-.27,6.86h-0.44q0.12-1.75.15-3.34h-4.67l-0.08,2.47v0.87h-0.44Z" transform="translate(-3.97 -0.15)"/><path class="cls-6" d="M139.78,90.64l0.11-2L140,84.59l0-.81h0.61l0.42,0.66,0.69,1,2.57,3.72q0.39,0.57.8,1.13l0.22-5.72V83.78h0.42l-0.1,1.57-0.16,4.29,0,1h-0.6L144,89.27l-3.19-4.58-0.37-.51c0,0.17,0,.35,0,0.53l-0.18,4.7,0,1.22h-0.42Z" transform="translate(-3.97 -0.15)"/><path class="cls-6" d="M150.41,83.67a4.22,4.22,0,0,1,1.36.22,2.87,2.87,0,0,1,1.8,1.82,4.35,4.35,0,0,1,.2,1.34,4.86,4.86,0,0,1-.23,1.5,3.08,3.08,0,0,1-.7,1.21,3,3,0,0,1-1.17.74,4.41,4.41,0,0,1-2.89,0,2.93,2.93,0,0,1-1.14-.69,2.72,2.72,0,0,1-.67-1.09,4.22,4.22,0,0,1-.21-1.34,4.59,4.59,0,0,1,.26-1.53,3.16,3.16,0,0,1,.75-1.23,3,3,0,0,1,1.18-.72A4.54,4.54,0,0,1,150.41,83.67Zm0,0.31a3.94,3.94,0,0,0-1.31.21,2.64,2.64,0,0,0-1.07.69,2.94,2.94,0,0,0-.66,1.13,4.34,4.34,0,0,0-.21,1.36,3.74,3.74,0,0,0,.22,1.28,2.57,2.57,0,0,0,.65,1,2.53,2.53,0,0,0,1,.58,4.2,4.2,0,0,0,1.22.17,4.06,4.06,0,0,0,1.27-.2,2.5,2.5,0,0,0,1-.65,2.77,2.77,0,0,0,.64-1.1,4.42,4.42,0,0,0,.2-1.35,4.36,4.36,0,0,0-.19-1.29,2.52,2.52,0,0,0-.61-1,2.41,2.41,0,0,0-1-.62A3.82,3.82,0,0,0,150.39,84Z" transform="translate(-3.97 -0.15)"/><path class="cls-6" d="M154.72,90.64L154.83,89l0.13-3.6,0-1.66h0.44l-0.18,3.92-0.09,2.62h2.55l0.81,0c0,0.13,0,.25,0,0.36h-3.78Z" transform="translate(-3.97 -0.15)"/><path class="cls-6" d="M162.53,83.67a4.22,4.22,0,0,1,1.36.22,2.87,2.87,0,0,1,1.8,1.82,4.35,4.35,0,0,1,.2,1.34,4.86,4.86,0,0,1-.23,1.5,3.08,3.08,0,0,1-.7,1.21,3,3,0,0,1-1.17.74,4.33,4.33,0,0,1-1.47.25,4.29,4.29,0,0,1-1.42-.23,2.93,2.93,0,0,1-1.14-.69,2.72,2.72,0,0,1-.67-1.09,4.26,4.26,0,0,1-.21-1.34,4.59,4.59,0,0,1,.26-1.53,3.16,3.16,0,0,1,.75-1.23,3,3,0,0,1,1.18-.72A4.54,4.54,0,0,1,162.53,83.67Zm0,0.31a3.94,3.94,0,0,0-1.31.21,2.64,2.64,0,0,0-1.07.69,2.94,2.94,0,0,0-.66,1.13,4.34,4.34,0,0,0-.21,1.36,3.74,3.74,0,0,0,.22,1.28,2.57,2.57,0,0,0,.65,1,2.53,2.53,0,0,0,1,.58,4.2,4.2,0,0,0,1.22.17,4.06,4.06,0,0,0,1.27-.2,2.5,2.5,0,0,0,1-.65,2.77,2.77,0,0,0,.64-1.1,4.43,4.43,0,0,0,.2-1.35,4.36,4.36,0,0,0-.19-1.29,2.52,2.52,0,0,0-.61-1,2.41,2.41,0,0,0-1-.62A3.82,3.82,0,0,0,162.52,84Z" transform="translate(-3.97 -0.15)"/><path class="cls-6" d="M170.68,86.86h2.23l-0.09,1.59-0.06,1.94a13.58,13.58,0,0,1-1.42.27,8.6,8.6,0,0,1-1.07.08,5,5,0,0,1-1.47-.22,3.27,3.27,0,0,1-1.2-.65,2.58,2.58,0,0,1-.73-1.08,4,4,0,0,1-.24-1.37,4.07,4.07,0,0,1,.31-1.57,3.31,3.31,0,0,1,2.1-2,5.18,5.18,0,0,1,1.53-.22,8.38,8.38,0,0,1,.94.05,11.16,11.16,0,0,1,1.13.2c0,0.17,0,.32,0,0.46a8.7,8.7,0,0,0-1.23-.32,5.84,5.84,0,0,0-.95-0.08,4.33,4.33,0,0,0-1.41.23,2.93,2.93,0,0,0-1.14.69,3,3,0,0,0-.71,1.14,4.12,4.12,0,0,0-.24,1.4,3.63,3.63,0,0,0,.21,1.26,2.29,2.29,0,0,0,.64,1,3,3,0,0,0,1,.57,4.36,4.36,0,0,0,1.35.2l0.55,0,0.59-.08,0.49-.09,0.5-.14,0.12-2.92h-1.08l-0.76,0c0-.1,0-0.2,0-0.29V86.86Z" transform="translate(-3.97 -0.15)"/><path class="cls-6" d="M175.41,90.64l0.15-2.17,0-.93-0.67-1.2-1.49-2.55h0.45l0.22,0.41,0.42,0.73,1.3,2.26,1.2-1.8,0.74-1.15,0.28-.45h0.46L176,87.55c0,0.16,0,.32,0,0.47l-0.07,1.29c0,0.19,0,.4,0,0.63v0.7h-0.44Z" transform="translate(-3.97 -0.15)"/></svg>