<?xml version="1.0" encoding="utf-8"?>
<!-- Generator: Adobe Illustrator 20.1.0, SVG Export Plug-In . SVG Version: 6.00 Build 0)  -->
<svg version="1.1" id="Layer_1" xmlns="http://www.w3.org/2000/svg" xmlns:xlink="http://www.w3.org/1999/xlink" x="0px" y="0px"
	 viewBox="0 0 210 114" style="enable-background:new 0 0 210 114;" xml:space="preserve">
<style type="text/css">
	.st0{fill:url(#SVGID_1_);}
	.st1{fill:#FAAF43;}
	.st2{fill:url(#SVGID_2_);}
	.st3{fill:url(#SVGID_3_);}
	.st4{fill:url(#SVGID_4_);}
	.st5{fill:#F8F7ED;}
</style>
<g>
	<g>
		<linearGradient id="SVGID_1_" gradientUnits="userSpaceOnUse" x1="84.0549" y1="0.6287" x2="115.2093" y2="47.4572">
			<stop  offset="0" style="stop-color:#F8AF43"/>
			<stop  offset="1" style="stop-color:#F15B2B"/>
		</linearGradient>
		<path class="st0" d="M127.1,46.2H117c0,0-6.1-0.1-11.1-2.5c-5.3-2.5-9.7-7.9-9.7-7.9L70.9,0h13.5c0,0,6,0.5,10.3,3
			c3.5,2,9.7,11.4,9.7,11.4L127.1,46.2z"/>
		<path class="st1" d="M128.5,46.2h6.4c0,0,2.3-0.1,4.3-1c2.1-1,3.7-3.1,3.7-3.1l9.8-13.8h-2.3c0,0-5.4-0.2-9,2.4
			c-3.7,2.6-7.7,8.1-7.7,8.1L128.5,46.2z"/>
		<linearGradient id="SVGID_2_" gradientUnits="userSpaceOnUse" x1="155.2724" y1="53.9874" x2="194.2648" y2="108.1326">
			<stop  offset="0" style="stop-color:#F8AF43"/>
			<stop  offset="6.143451e-03" style="stop-color:#F8AD42"/>
			<stop  offset="0.1316" style="stop-color:#F6953A"/>
			<stop  offset="0.2641" style="stop-color:#F48234"/>
			<stop  offset="0.4072" style="stop-color:#F37230"/>
			<stop  offset="0.5635" style="stop-color:#F2652D"/>
			<stop  offset="0.7434" style="stop-color:#F15E2B"/>
			<stop  offset="1" style="stop-color:#F15B2B"/>
		</linearGradient>
		<path class="st2" d="M143.4,53.7h10.1c0,0,6.4,0,11.9,3c5.2,2.9,9,7.9,9,7.9l35.7,49.3h-13.7c0,0-7.1,0.2-10.5-3
			c-3.5-3.2-7.2-8.6-7.2-8.6L143.4,53.7z"/>
		<linearGradient id="SVGID_3_" gradientUnits="userSpaceOnUse" x1="88.5015" y1="60.0971" x2="109.5266" y2="60.0971">
			<stop  offset="0" style="stop-color:#F8AF43"/>
			<stop  offset="1" style="stop-color:#F15B2B"/>
		</linearGradient>
		<path class="st3" d="M88.5,68.6h12c0,0,1.6,0,2.8-0.5c1.1-0.5,1.8-1.5,1.8-1.5l4.5-6.4l-5.9-8.5h-0.5c0,0-1.3-0.1-2.3,0.4
			c-1.1,0.5-1.7,1.6-1.7,1.6L88.5,68.6z"/>
		<linearGradient id="SVGID_4_" gradientUnits="userSpaceOnUse" x1="106.441" y1="62.3607" x2="145.6976" y2="62.3607">
			<stop  offset="0" style="stop-color:#F8AF43"/>
			<stop  offset="1" style="stop-color:#F15B2B"/>
		</linearGradient>
		<path class="st4" d="M135.6,73.1c0.6-0.1,1.2-0.4,1.6-0.6c0.9-0.6,1.6-1.7,1.6-1.7l6.9-9.9l-4.9-7.2l-9.4,13.4l-6.6-9.4
			c0,0-1.5-2.6-4.3-4.5c-2.7-1.8-6.9-1.6-6.9-1.6h-7l11.8,16.7c0,0,1.7,2.4,4.4,3.7c2.5,1.3,5.4,1.1,5.4,1.1"/>
	</g>
	<g>
		<g>
			<path class="st5" d="M5.3,92.4l-0.6-1.9L0.1,77.7c0.5,0,0.9,0,1.1,0l1,0l0.3,1.2c0.1,0.3,0.2,0.5,0.2,0.8l3.8,11.2l5.5-11.2
				c0.1-0.2,0.2-0.5,0.4-0.8c0.1-0.3,0.3-0.7,0.5-1.2c0.5,0,0.9,0,1.1,0l1.1,0c-0.7,1.2-1.5,2.9-2.6,4.9l-2.8,5.5
				c-0.8,1.6-1.5,3-2.1,4.3c-0.5,0-0.9,0-1.2,0C6.2,92.4,5.8,92.4,5.3,92.4z"/>
			<path class="st5" d="M15.2,92.4l0.2-2.7l0.2-4.6l0.1-3.6l1,0l1,0c-0.1,1.1-0.2,2.3-0.2,3.5c-0.1,1.2-0.1,2.6-0.2,4
				c0,1.5-0.1,2.6-0.1,3.4c-0.5,0-0.8,0-1,0C16.1,92.4,15.7,92.4,15.2,92.4z M15.7,79.1c0-0.7,0-1.2,0-1.5c0.4,0,0.7,0,1,0
				c0.4,0,0.7,0,1,0c0,0.2,0,0.7-0.1,1.5c-0.4,0-0.7,0-1,0C16.5,79.1,16.1,79.1,15.7,79.1z"/>
			<path class="st5" d="M19.1,92.2L19,91.4c0-0.1,0-0.4-0.1-0.8c1.1,0.5,2.1,0.7,3.1,0.7c0.5,0,0.9-0.1,1.2-0.2
				c0.3-0.1,0.6-0.3,0.8-0.6c0.2-0.3,0.3-0.5,0.3-0.8c0-0.2,0-0.3-0.1-0.5c0-0.2-0.1-0.3-0.2-0.4c-0.1-0.1-0.2-0.3-0.4-0.5
				c-0.2-0.2-0.6-0.5-1.1-1c-0.6-0.5-1-0.8-1.3-1.1c-0.3-0.3-0.6-0.5-0.8-0.8c-0.2-0.3-0.4-0.6-0.5-0.8c-0.1-0.3-0.1-0.6-0.1-0.9
				c0-0.5,0.1-0.9,0.4-1.3c0.3-0.4,0.7-0.8,1.3-1c0.5-0.2,1.2-0.3,1.9-0.3c0.8,0,1.7,0.1,2.7,0.3c0,0.6,0.1,1.1,0.1,1.5
				c-0.8-0.3-1.6-0.5-2.4-0.5c-0.4,0-0.8,0.1-1.2,0.2c-0.4,0.1-0.6,0.3-0.8,0.5c-0.2,0.2-0.3,0.5-0.3,0.7c0,0.2,0,0.3,0.1,0.5
				c0.1,0.2,0.2,0.3,0.3,0.5c0.2,0.2,0.3,0.4,0.5,0.5c0.2,0.2,0.6,0.5,1.2,1c0.6,0.5,1,0.9,1.3,1.1c0.2,0.2,0.4,0.5,0.6,0.7
				c0.2,0.2,0.3,0.5,0.4,0.8c0.1,0.2,0.1,0.5,0.1,0.8c0,0.5-0.2,1-0.5,1.4c-0.3,0.4-0.7,0.8-1.3,1c-0.6,0.2-1.3,0.4-2,0.4
				c-0.3,0-0.7,0-1.1-0.1c-0.4,0-0.8-0.1-1.1-0.1C19.9,92.4,19.5,92.3,19.1,92.2z"/>
			<path class="st5" d="M38.1,92.4c-0.4,0-0.7,0-0.9,0c-0.3,0-0.6,0-0.9,0l0.1-2.1c-0.2,0.3-0.3,0.6-0.4,0.7
				c-0.1,0.2-0.3,0.3-0.5,0.5c-0.2,0.2-0.4,0.3-0.6,0.4c-0.2,0.1-0.4,0.2-0.7,0.3c-0.3,0.1-0.6,0.2-0.9,0.2
				c-0.4,0.1-0.7,0.1-1.1,0.1c-0.9,0-1.6-0.1-2.3-0.4c-0.6-0.3-1.1-0.6-1.4-1.1c-0.3-0.5-0.5-1.2-0.5-2c0-0.1,0-0.4,0-0.7
				c0-0.3,0-0.7,0.1-1.2l0.2-3.6l0-1.2c0-0.3,0-0.6,0-1l1,0c0.2,0,0.5,0,0.9,0c-0.1,1.3-0.2,2.6-0.3,4.1c-0.1,1.5-0.1,2.5-0.1,2.9
				c0,0.6,0.1,1.1,0.3,1.5c0.2,0.4,0.5,0.7,1,0.9c0.5,0.2,1,0.3,1.6,0.3c0.5,0,1-0.1,1.5-0.3c0.4-0.2,0.8-0.4,1.1-0.7
				c0.3-0.3,0.6-0.7,0.8-1.2c0.1-0.4,0.3-0.8,0.3-1.4c0-0.4,0.1-1.1,0.2-2.2c0.1-1.3,0.1-2.6,0.1-3.9l1,0c0.2,0,0.5,0,0.9,0
				c-0.1,1.3-0.2,3.3-0.4,5.9C38.1,88.8,38.1,90.5,38.1,92.4z"/>
			<path class="st5" d="M41.1,83.2c0.1-0.3,0.1-0.8,0.2-1.4c0.9-0.2,1.6-0.4,2.3-0.5c0.6-0.1,1.3-0.1,1.9-0.1c0.6,0,1.3,0.1,1.8,0.2
				c0.6,0.1,1,0.3,1.4,0.6c0.4,0.3,0.6,0.6,0.7,0.9c0.1,0.3,0.2,0.7,0.2,1.1c0,0.5,0,1.3-0.1,2.5c-0.1,1.2-0.1,2.2-0.2,3.2
				c0,1-0.1,1.9-0.1,2.7c-0.4,0-0.7,0-1,0c-0.2,0-0.6,0-1,0l0.2-2.9l0.2-3.5c-0.3,0.2-0.4,0.3-0.6,0.4c-0.1,0.1-0.3,0.2-0.4,0.2
				c-0.2,0.1-0.3,0.1-0.5,0.2C46,86.9,45.6,87,45,87.1c-0.6,0.1-0.9,0.3-1.2,0.3c-0.5,0.2-0.9,0.3-1.2,0.5c-0.3,0.2-0.5,0.3-0.7,0.5
				c-0.2,0.2-0.3,0.4-0.4,0.6c-0.1,0.2-0.1,0.5-0.1,0.7c0,0.4,0.1,0.7,0.3,1c0.2,0.3,0.5,0.5,0.9,0.6c0.3,0.1,0.8,0.2,1.3,0.2
				c0.3,0,0.6,0,0.9-0.1c0.3,0,0.8-0.2,1.3-0.3c-0.1,0.3-0.2,0.7-0.3,1.3c-0.5,0.1-1,0.2-1.3,0.2c-0.3,0-0.6,0-0.9,0
				c-1,0-1.8-0.1-2.3-0.3c-0.6-0.2-1-0.6-1.2-1.1c-0.3-0.5-0.4-1-0.4-1.5c0-0.3,0-0.6,0.1-0.9c0.1-0.3,0.2-0.5,0.4-0.7
				c0.2-0.2,0.4-0.4,0.7-0.7c0.3-0.2,0.6-0.4,1-0.6c0.3-0.1,0.7-0.3,1.2-0.4c0.4-0.1,1.2-0.3,2.1-0.6c0.3-0.1,0.6-0.1,0.8-0.2
				c0.2-0.1,0.4-0.1,0.6-0.2c0.2-0.1,0.3-0.2,0.5-0.3c0.1-0.1,0.2-0.2,0.4-0.4c0.1-0.1,0.2-0.3,0.2-0.4c0.1-0.1,0.1-0.3,0.1-0.4
				c0-0.4-0.1-0.7-0.3-0.9c-0.2-0.2-0.5-0.4-0.9-0.5c-0.4-0.1-0.8-0.2-1.3-0.2c-0.5,0-0.9,0-1.4,0.1c-0.5,0.1-0.9,0.2-1.3,0.3
				C42.1,82.8,41.6,83,41.1,83.2z"/>
			<path class="st5" d="M51.6,92.4c0.1-2.2,0.3-4.8,0.4-7.9c0.1-2.2,0.2-4.5,0.2-6.9l1,0c0.2,0,0.5,0,1,0L53.9,84l-0.2,6.4l0,2
				c-0.4,0-0.7,0-1,0C52.5,92.4,52.2,92.4,51.6,92.4z"/>
			<path class="st5" d="M60.9,92.4l0.2-2l0.7-8l0.3-4.7c0.5,0,1,0,1.4,0c0.4,0,0.8,0,1.4,0l0.2,0.9c0.1,0.3,0.2,0.5,0.3,0.9
				c0.1,0.3,0.3,0.9,0.6,1.7l1.3,3.8l1.6,5.1l2.1-5.1l2.4-5.6c0.1-0.2,0.2-0.4,0.3-0.6c0.1-0.2,0.2-0.6,0.4-1.1c0.5,0,1,0,1.5,0
				c0.4,0,0.9,0,1.4,0l-0.1,5.1l-0.1,3.4c0,0.3,0,0.6,0,0.9l0,2.5V91c0,0.2,0,0.6,0,1.4c-0.5,0-0.8,0-0.9,0c-0.2,0-0.6,0-1,0L75,91
				l0.2-7.8c0-0.9,0-1.8,0-2.9l0-0.9l-4.7,11.4l-0.6,1.6c-0.5,0-0.8,0-1,0c-0.2,0-0.6,0-1,0l-1.3-4.1l-1.3-4l-1.3-3.9
				c-0.1-0.2-0.2-0.5-0.3-0.9l-0.1,1.3l-0.7,9.3c0,0.3,0,0.6,0,0.9c0,0.3,0,0.8,0,1.4l-0.9,0C61.7,92.4,61.4,92.4,60.9,92.4z"/>
			<path class="st5" d="M88.2,90.7c-0.1,0.4-0.2,0.9-0.3,1.5c-0.7,0.2-1.3,0.3-1.8,0.3c-0.5,0.1-1,0.1-1.5,0.1
				c-0.9,0-1.7-0.1-2.4-0.3c-0.7-0.2-1.3-0.6-1.8-1.1c-0.5-0.5-0.9-1.1-1.1-1.8c-0.2-0.7-0.3-1.4-0.3-2.2c0-1.1,0.2-2.1,0.6-3
				c0.4-0.9,1-1.6,1.8-2.2c0.8-0.5,1.9-0.8,3.1-0.8c0.7,0,1.3,0.1,1.9,0.3c0.6,0.2,1.1,0.5,1.5,0.9c0.4,0.4,0.7,0.9,0.9,1.4
				c0.2,0.6,0.3,1.2,0.3,1.9c0,0.3,0,0.5-0.1,0.8h-8.2c0,0.4,0,0.7,0,0.9c0,0.8,0.2,1.5,0.5,2.1c0.3,0.6,0.8,1.1,1.4,1.4
				c0.6,0.3,1.3,0.5,2.1,0.5C85.8,91.4,86.9,91.2,88.2,90.7z M80.9,85.6h6.4c0-0.5,0-0.8-0.1-1.1c-0.1-0.3-0.1-0.5-0.3-0.8
				c-0.1-0.3-0.3-0.5-0.6-0.7c-0.2-0.2-0.5-0.3-0.8-0.5c-0.3-0.1-0.7-0.2-1.1-0.2c-0.4,0-0.8,0.1-1.2,0.2c-0.4,0.1-0.7,0.3-1,0.5
				c-0.3,0.2-0.5,0.4-0.7,0.7c-0.2,0.3-0.3,0.5-0.4,0.8C81.1,84.8,81,85.1,80.9,85.6z"/>
			<path class="st5" d="M100.7,92.4c-0.4,0-0.7,0-0.9,0c-0.2,0-0.5,0-0.9,0l0.1-2.3c-0.2,0.4-0.4,0.7-0.6,0.9
				c-0.2,0.2-0.4,0.4-0.6,0.6c-0.2,0.2-0.5,0.4-0.8,0.5c-0.3,0.2-0.6,0.3-1,0.4c-0.4,0.1-0.8,0.1-1.2,0.1c-0.7,0-1.3-0.1-2-0.4
				c-0.6-0.3-1.1-0.6-1.5-1.1c-0.4-0.5-0.7-1-0.9-1.6c-0.2-0.6-0.3-1.3-0.3-1.9c0-0.9,0.2-1.8,0.5-2.7c0.3-0.9,0.8-1.6,1.5-2.2
				c0.6-0.6,1.4-1,2.2-1.2c0.8-0.2,1.7-0.3,2.6-0.3c0.6,0,1.4,0.1,2.3,0.2c0-0.8,0.1-1.4,0.1-2c0-0.7,0-1.4,0-1.8l1,0
				c0.2,0,0.6,0,1,0l-0.3,6.1l-0.2,7V92.4z M99.1,82.8c-0.4-0.1-0.8-0.2-1.1-0.2c-0.3,0-0.6-0.1-0.9-0.1c-0.7,0-1.4,0.1-2,0.3
				c-0.6,0.2-1.2,0.5-1.7,1c-0.5,0.5-0.8,1-1.1,1.7c-0.3,0.7-0.4,1.4-0.4,2c0,0.7,0.1,1.3,0.4,1.9c0.2,0.6,0.6,1,1.1,1.4
				c0.5,0.3,1.1,0.5,1.8,0.5c0.4,0,0.8-0.1,1.1-0.2c0.3-0.1,0.6-0.3,0.9-0.5c0.3-0.2,0.5-0.5,0.8-0.9c0.2-0.4,0.4-0.8,0.6-1.3
				c0.1-0.4,0.2-1,0.3-1.7c0-0.4,0.1-1,0.1-2L99.1,82.8z"/>
			<path class="st5" d="M103.1,92.4l0.2-2.7l0.2-4.6l0.1-3.6l1,0l1,0c-0.1,1.1-0.2,2.3-0.2,3.5c-0.1,1.2-0.1,2.6-0.2,4
				c0,1.5-0.1,2.6-0.1,3.4c-0.5,0-0.8,0-1,0C103.9,92.4,103.6,92.4,103.1,92.4z M103.6,79.1c0-0.7,0-1.2,0-1.5c0.4,0,0.7,0,1,0
				c0.4,0,0.7,0,1,0c0,0.2,0,0.7-0.1,1.5c-0.4,0-0.7,0-1,0S104,79.1,103.6,79.1z"/>
			<path class="st5" d="M108.1,83.2c0.1-0.3,0.1-0.8,0.2-1.4c0.9-0.2,1.6-0.4,2.3-0.5c0.6-0.1,1.3-0.1,1.9-0.1
				c0.6,0,1.3,0.1,1.8,0.2c0.6,0.1,1,0.3,1.4,0.6c0.4,0.3,0.6,0.6,0.7,0.9c0.1,0.3,0.2,0.7,0.2,1.1c0,0.5,0,1.3-0.1,2.5
				c-0.1,1.2-0.1,2.2-0.2,3.2c0,1-0.1,1.9-0.1,2.7c-0.4,0-0.7,0-0.9,0c-0.2,0-0.6,0-1,0l0.2-2.9l0.2-3.5c-0.3,0.2-0.4,0.3-0.6,0.4
				c-0.1,0.1-0.3,0.2-0.4,0.2c-0.2,0.1-0.3,0.1-0.5,0.2c-0.2,0.1-0.6,0.2-1.1,0.3c-0.6,0.1-0.9,0.3-1.2,0.3
				c-0.5,0.2-0.9,0.3-1.2,0.5c-0.3,0.2-0.5,0.3-0.7,0.5c-0.2,0.2-0.3,0.4-0.4,0.6c-0.1,0.2-0.1,0.5-0.1,0.7c0,0.4,0.1,0.7,0.3,1
				c0.2,0.3,0.5,0.5,0.9,0.6c0.3,0.1,0.8,0.2,1.3,0.2c0.3,0,0.6,0,1-0.1c0.3,0,0.8-0.2,1.3-0.3c-0.1,0.3-0.2,0.7-0.3,1.3
				c-0.5,0.1-1,0.2-1.3,0.2c-0.3,0-0.6,0-0.9,0c-1,0-1.8-0.1-2.3-0.3c-0.6-0.2-1-0.6-1.2-1.1c-0.3-0.5-0.4-1-0.4-1.5
				c0-0.3,0-0.6,0.1-0.9c0.1-0.3,0.2-0.5,0.4-0.7c0.2-0.2,0.4-0.4,0.7-0.7c0.3-0.2,0.6-0.4,1-0.6c0.3-0.1,0.7-0.3,1.2-0.4
				c0.4-0.1,1.2-0.3,2.1-0.6c0.3-0.1,0.6-0.1,0.8-0.2c0.2-0.1,0.4-0.1,0.6-0.2c0.2-0.1,0.3-0.2,0.5-0.3c0.1-0.1,0.2-0.2,0.4-0.4
				c0.1-0.1,0.2-0.3,0.2-0.4c0-0.1,0.1-0.3,0.1-0.4c0-0.4-0.1-0.7-0.3-0.9c-0.2-0.2-0.5-0.4-0.9-0.5c-0.4-0.1-0.8-0.2-1.3-0.2
				c-0.5,0-0.9,0-1.4,0.1c-0.5,0.1-0.9,0.2-1.3,0.3C109.1,82.8,108.6,83,108.1,83.2z"/>
			<path class="st5" d="M123.8,92.4c0.2-1.9,0.3-4.1,0.4-6.8c0.1-2.7,0.2-5.3,0.2-7.9c0.5,0,0.9,0,1.1,0l1,0l-0.3,6.8L126,91l2.1,0
				c1.5,0,2.6,0,3.2,0c0.6,0,1.2,0,1.8-0.1c0,0.5-0.1,1-0.1,1.5c-1.6,0-3.1,0-4.3,0L123.8,92.4z"/>
			<path class="st5" d="M134.6,83.2c0.1-0.3,0.1-0.8,0.2-1.4c0.9-0.2,1.6-0.4,2.3-0.5c0.6-0.1,1.3-0.1,1.9-0.1
				c0.6,0,1.3,0.1,1.8,0.2c0.6,0.1,1,0.3,1.4,0.6c0.4,0.3,0.6,0.6,0.7,0.9c0.1,0.3,0.2,0.7,0.2,1.1c0,0.5,0,1.3-0.1,2.5
				c-0.1,1.2-0.1,2.2-0.2,3.2c0,1-0.1,1.9-0.1,2.7c-0.4,0-0.7,0-0.9,0c-0.2,0-0.6,0-1,0l0.2-2.9l0.2-3.5c-0.3,0.2-0.4,0.3-0.6,0.4
				c-0.1,0.1-0.3,0.2-0.4,0.2c-0.2,0.1-0.3,0.1-0.5,0.2c-0.2,0.1-0.6,0.2-1.1,0.3c-0.6,0.1-0.9,0.3-1.2,0.3
				c-0.5,0.2-0.9,0.3-1.2,0.5c-0.3,0.2-0.5,0.3-0.7,0.5c-0.2,0.2-0.3,0.4-0.4,0.6c-0.1,0.2-0.1,0.5-0.1,0.7c0,0.4,0.1,0.7,0.3,1
				c0.2,0.3,0.5,0.5,0.9,0.6c0.3,0.1,0.8,0.2,1.3,0.2c0.3,0,0.6,0,0.9-0.1c0.3,0,0.8-0.2,1.3-0.3c-0.1,0.3-0.2,0.7-0.3,1.3
				c-0.5,0.1-1,0.2-1.3,0.2c-0.3,0-0.6,0-0.9,0c-1,0-1.8-0.1-2.3-0.3c-0.6-0.2-1-0.6-1.2-1.1c-0.3-0.5-0.4-1-0.4-1.5
				c0-0.3,0-0.6,0.1-0.9c0.1-0.3,0.2-0.5,0.4-0.7c0.2-0.2,0.4-0.4,0.7-0.7c0.3-0.2,0.6-0.4,1-0.6c0.3-0.1,0.7-0.3,1.2-0.4
				c0.4-0.1,1.2-0.3,2.1-0.6c0.3-0.1,0.6-0.1,0.8-0.2c0.2-0.1,0.4-0.1,0.6-0.2c0.2-0.1,0.3-0.2,0.5-0.3c0.1-0.1,0.2-0.2,0.4-0.4
				c0.1-0.1,0.2-0.3,0.2-0.4c0-0.1,0.1-0.3,0.1-0.4c0-0.4-0.1-0.7-0.3-0.9c-0.2-0.2-0.5-0.4-0.9-0.5c-0.4-0.1-0.8-0.2-1.3-0.2
				c-0.5,0-0.9,0-1.4,0.1c-0.5,0.1-0.9,0.2-1.3,0.3C135.6,82.8,135.1,83,134.6,83.2z"/>
			<path class="st5" d="M145.2,92.4l0.1-1.2c0-0.2,0-0.6,0.1-1.2l0.3-7.3l0.1-5c0.4,0,0.8,0,1,0c0.2,0,0.6,0,1,0
				c-0.1,0.9-0.2,2.2-0.3,4c0.8-0.2,1.4-0.3,1.9-0.3c0.5-0.1,1-0.1,1.4-0.1c0.9,0,1.7,0.1,2.4,0.3c0.7,0.2,1.3,0.6,1.7,1.1
				c0.5,0.5,0.8,1.1,1,1.8c0.2,0.6,0.3,1.3,0.3,2c0,0.8-0.1,1.6-0.3,2.4c-0.2,0.8-0.6,1.4-1,2c-0.5,0.6-1,1-1.7,1.3
				c-0.7,0.3-1.4,0.4-2.1,0.4c-0.4,0-0.8,0-1.2-0.1c-0.4-0.1-0.7-0.2-1-0.4c-0.3-0.2-0.5-0.3-0.8-0.5c-0.2-0.2-0.4-0.4-0.5-0.6
				c-0.1-0.2-0.3-0.5-0.4-0.8l0,2.2c-0.4,0-0.7,0-0.9,0C146,92.4,145.7,92.4,145.2,92.4z M147.4,83.1c-0.1,1.2-0.1,2-0.1,2.4
				c0,0.4,0,0.8,0,1.4c0,1.1,0.1,2,0.4,2.6c0.3,0.6,0.6,1.1,1.2,1.4c0.5,0.3,1.1,0.5,1.8,0.5c0.8,0,1.4-0.2,1.9-0.6
				c0.5-0.4,1-1,1.3-1.7c0.3-0.8,0.5-1.6,0.5-2.4c0-1.2-0.3-2.1-0.9-2.9c-0.6-0.7-1.6-1.1-2.8-1.1c-0.4,0-0.9,0-1.4,0.1
				C148.6,82.8,148,82.9,147.4,83.1z"/>
		</g>
		<g>
			<path class="st5" d="M2.1,102.8l-1.5-4.5l-0.4-1.1C0.2,97,0.1,96.8,0,96.6c0.1,0,0.2,0,0.2,0c0.1,0,0.2,0,0.2,0l0.2,0.8l1.7,5.1
				l0.2-0.4l1.6-3.2c-0.2-0.5-0.3-0.9-0.4-1.3l-0.3-1c0.1,0,0.1,0,0.2,0c0.1,0,0.1,0,0.2,0c0.2,0.6,0.4,1.2,0.6,1.8l0.8-1.8
				c0.1,0,0.1,0,0.2,0c0.1,0,0.1,0,0.2,0l-0.6,1.2c-0.2,0.3-0.3,0.7-0.5,1L4.6,99l1,3l0.2,0.4l0.3-0.6c0.1-0.1,0.2-0.3,0.3-0.7
				l1.9-4.2c0.1-0.1,0.1-0.3,0.2-0.5c0.1,0,0.1,0,0.2,0c0.1,0,0.1,0,0.2,0c-0.2,0.3-0.5,1-1,2.1l-1.2,2.5c-0.3,0.6-0.5,1.1-0.8,1.7
				c-0.1,0-0.2,0-0.2,0c-0.1,0-0.2,0-0.2,0l-0.5-1.5l-0.7-2.1l-0.1,0.2c0,0.1-0.1,0.2-0.2,0.4l-1.5,2.9c-0.1,0-0.2,0-0.2,0
				C2.3,102.8,2.2,102.8,2.1,102.8z"/>
			<path class="st5" d="M9.3,102.8c0.1-1.3,0.1-2.5,0.2-3.7c0-1.1,0.1-2,0.1-2.6c0.1,0,0.1,0,0.2,0c0.1,0,0.1,0,0.2,0l-0.1,2.9H14
				l0.1-2.3c0-0.1,0-0.3,0-0.6c0.1,0,0.1,0,0.2,0c0.1,0,0.1,0,0.2,0c-0.1,1.9-0.2,4-0.2,6.2c-0.1,0-0.1,0-0.2,0c-0.1,0-0.1,0-0.2,0
				c0.1-1.1,0.1-2.1,0.1-3H9.8L9.7,102l0,0.8c-0.1,0-0.1,0-0.2,0C9.4,102.8,9.4,102.8,9.3,102.8z"/>
			<path class="st5" d="M15.6,102.8c0.1-0.8,0.1-1.9,0.2-3.2c0-1.3,0.1-2.3,0.1-3c0.7,0,1.3,0,1.9,0l1.7,0c0,0.1,0,0.2,0,0.3l-0.4,0
				c-0.1,0-0.3,0-0.5,0c-0.2,0-0.5,0-0.7,0c-0.7,0-1.3,0-1.6,0l-0.1,2.6c0.5,0,0.9,0,1.3,0c0.5,0,1,0,1.7,0c0,0.1,0,0.2,0,0.3
				l-1.7,0c-0.2,0-0.6,0-1.2,0l-0.1,2.7l1.3,0c0.5,0,0.9,0,1.1,0c0.2,0,0.5,0,0.8,0c0,0.1,0,0.2,0,0.3c-0.7,0-1.3,0-1.6,0
				L15.6,102.8z"/>
			<path class="st5" d="M20.3,102.8l0.1-1.1l0.1-3.4l0-1l0-0.7l0.9,0l1,0c0.4,0,0.7,0.1,0.9,0.2c0.2,0.1,0.4,0.3,0.5,0.5
				c0.1,0.2,0.2,0.5,0.2,0.7c0,0.3-0.1,0.7-0.3,0.9c-0.2,0.3-0.4,0.5-0.7,0.7c-0.3,0.2-0.6,0.2-1,0.2c0,0-0.1,0-0.2,0l2.2,3
				c-0.1,0-0.2,0-0.2,0c-0.1,0-0.2,0-0.2,0l-0.6-0.9l-1.7-2.5c0.3,0,0.5,0.1,0.7,0.1c0.2,0,0.5,0,0.7-0.1c0.2-0.1,0.4-0.2,0.6-0.3
				c0.2-0.1,0.3-0.3,0.4-0.5c0.1-0.2,0.1-0.4,0.1-0.6c0-0.2,0-0.3-0.1-0.4c0-0.1-0.1-0.2-0.2-0.4c-0.1-0.1-0.2-0.2-0.3-0.2
				c-0.1,0-0.2-0.1-0.4-0.1c-0.2,0-0.3,0-0.5,0l-0.8,0c-0.2,0-0.4,0-0.6,0c-0.1,2.4-0.2,4.4-0.2,6c-0.1,0-0.2,0-0.2,0
				C20.4,102.8,20.4,102.8,20.3,102.8z"/>
			<path class="st5" d="M24.8,102.8c0.1-0.8,0.1-1.9,0.2-3.2c0-1.3,0.1-2.3,0.1-3c0.7,0,1.3,0,1.9,0l1.7,0c0,0.1,0,0.2,0,0.3l-0.4,0
				c-0.1,0-0.3,0-0.5,0c-0.2,0-0.5,0-0.7,0c-0.7,0-1.3,0-1.6,0l-0.1,2.6c0.5,0,0.9,0,1.3,0c0.5,0,1,0,1.7,0c0,0.1,0,0.2,0,0.3
				l-1.7,0c-0.2,0-0.6,0-1.2,0l-0.1,2.7l1.3,0c0.5,0,0.9,0,1.1,0c0.2,0,0.5,0,0.8,0c0,0.1,0,0.2,0,0.3c-0.7,0-1.3,0-1.6,0
				L24.8,102.8z"/>
			<path class="st5" d="M36.2,102.3c0,0.1,0,0.2-0.1,0.4c-0.3,0.1-0.6,0.1-0.9,0.2c-0.3,0-0.5,0-0.7,0c-0.4,0-0.9-0.1-1.3-0.2
				c-0.4-0.1-0.7-0.4-1-0.6c-0.3-0.3-0.5-0.6-0.6-1c-0.1-0.4-0.2-0.8-0.2-1.2c0-0.5,0.1-0.9,0.2-1.4c0.2-0.4,0.4-0.8,0.7-1.1
				c0.3-0.3,0.7-0.5,1.1-0.7c0.4-0.1,0.9-0.2,1.3-0.2c0.2,0,0.3,0,0.5,0c0.2,0,0.3,0,0.5,0c0.1,0,0.3,0.1,0.5,0.1c0,0.1,0,0.3,0,0.4
				c-0.3-0.1-0.6-0.2-0.9-0.2c-0.2,0-0.5-0.1-0.7-0.1c-0.4,0-0.8,0.1-1.1,0.2c-0.4,0.1-0.7,0.3-1,0.6c-0.3,0.3-0.5,0.6-0.6,1
				c-0.2,0.4-0.2,0.8-0.2,1.2c0,0.4,0.1,0.8,0.2,1.2c0.1,0.4,0.3,0.7,0.6,0.9c0.2,0.2,0.5,0.4,0.9,0.6c0.3,0.1,0.7,0.2,1.1,0.2
				C35,102.6,35.6,102.5,36.2,102.3z"/>
			<path class="st5" d="M37.1,102.8l0.1-1.1l0.1-3.4l0-1l0-0.7l0.9,0l1,0c0.4,0,0.8,0.1,0.9,0.2c0.2,0.1,0.4,0.3,0.5,0.5
				c0.1,0.2,0.2,0.5,0.2,0.7c0,0.3-0.1,0.7-0.3,0.9c-0.2,0.3-0.4,0.5-0.7,0.7c-0.3,0.2-0.6,0.2-1,0.2c0,0-0.1,0-0.2,0l2.2,3
				c-0.1,0-0.2,0-0.2,0c-0.1,0-0.2,0-0.2,0l-0.6-0.9L38,99.4c0.3,0,0.5,0.1,0.7,0.1c0.2,0,0.5,0,0.7-0.1c0.2-0.1,0.4-0.2,0.6-0.3
				c0.2-0.1,0.3-0.3,0.4-0.5c0.1-0.2,0.1-0.4,0.1-0.6c0-0.2,0-0.3-0.1-0.4c0-0.1-0.1-0.2-0.2-0.4C40.1,97.1,40,97,39.9,97
				c-0.1,0-0.2-0.1-0.4-0.1c-0.2,0-0.3,0-0.5,0l-0.8,0c-0.2,0-0.4,0-0.6,0c-0.1,2.4-0.2,4.4-0.2,6c-0.1,0-0.1,0-0.2,0
				C37.2,102.8,37.1,102.8,37.1,102.8z"/>
			<path class="st5" d="M41.6,102.8c0.1-0.8,0.1-1.9,0.2-3.2c0-1.3,0.1-2.3,0.1-3c0.7,0,1.3,0,1.9,0l1.7,0c0,0.1,0,0.2,0,0.3l-0.4,0
				c-0.1,0-0.3,0-0.5,0c-0.2,0-0.5,0-0.7,0c-0.7,0-1.3,0-1.6,0l-0.1,2.6c0.5,0,0.9,0,1.3,0c0.5,0,1,0,1.7,0c0,0.1,0,0.2,0,0.3
				l-1.7,0c-0.2,0-0.6,0-1.2,0l-0.1,2.7l1.3,0c0.5,0,0.9,0,1.1,0c0.2,0,0.5,0,0.8,0c0,0.1,0,0.2,0,0.3c-0.7,0-1.3,0-1.6,0
				L41.6,102.8z"/>
			<path class="st5" d="M45.4,102.8l1.5-3l1.3-2.7l0.3-0.6c0.1,0,0.2,0,0.2,0c0.1,0,0.2,0,0.2,0l0.9,2.5l1.3,3.7c-0.1,0-0.1,0-0.2,0
				c-0.1,0-0.1,0-0.2,0c-0.1-0.3-0.2-0.8-0.5-1.4c-0.2-0.7-0.4-1.2-0.6-1.5h-2.6l-1.4,3c-0.1,0-0.1,0-0.2,0
				C45.6,102.8,45.5,102.8,45.4,102.8z M47.4,99.5h2.3l-1-2.7L47.4,99.5z"/>
			<path class="st5" d="M53.3,102.8l0.1-1.1l0.2-4.8c-0.7,0-1.4,0-2,0c0-0.1,0-0.2,0-0.3c0.7,0,1.5,0,2.3,0l1.3,0h0.7
				c0,0.1,0,0.2,0,0.3c-0.4,0-0.9,0-1.7,0h-0.3l-0.2,5c0,0.1,0,0.1,0,0.2v0.7c-0.1,0-0.1,0-0.2,0C53.4,102.8,53.3,102.8,53.3,102.8z
				"/>
			<path class="st5" d="M56.2,102.8l0.1-1.8l0.1-2.8l0-0.9c0-0.3,0-0.5,0-0.7c0.1,0,0.1,0,0.2,0c0.1,0,0.1,0,0.2,0l-0.1,1.7
				l-0.1,3.4l0,1.2c-0.1,0-0.1,0-0.2,0C56.3,102.8,56.3,102.8,56.2,102.8z"/>
			<path class="st5" d="M59.7,102.8l-0.2-0.5c0-0.1-0.1-0.2-0.1-0.3c-0.1-0.1-0.1-0.4-0.3-0.7l-1.7-4.7c0.1,0,0.1,0,0.2,0
				c0.1,0,0.1,0,0.2,0l0.3,0.8l1.8,5.1l2.5-4.9l0.2-0.5c0.1-0.1,0.2-0.3,0.3-0.6c0.1,0,0.1,0,0.2,0c0.1,0,0.1,0,0.2,0
				c-0.3,0.5-0.6,1.2-1.1,2l-1.2,2.3c-0.4,0.7-0.7,1.3-0.9,1.9c-0.1,0-0.2,0-0.3,0C59.9,102.8,59.8,102.8,59.7,102.8z"/>
			<path class="st5" d="M63.6,102.8l0.1-1.8l0.1-2.8l0-0.9c0-0.3,0-0.5,0-0.7c0.1,0,0.1,0,0.2,0c0.1,0,0.1,0,0.2,0l-0.1,1.7
				l-0.1,3.4l0,1.2c-0.1,0-0.1,0-0.2,0C63.8,102.8,63.7,102.8,63.6,102.8z"/>
			<path class="st5" d="M66.6,102.8l0.1-1.1l0.2-4.8c-0.8,0-1.4,0-2,0c0-0.1,0-0.2,0-0.3c0.7,0,1.5,0,2.3,0l1.3,0h0.7
				c0,0.1,0,0.2,0,0.3c-0.4,0-0.9,0-1.7,0h-0.3l-0.2,5c0,0.1,0,0.1,0,0.2v0.7c-0.1,0-0.1,0-0.2,0C66.7,102.8,66.6,102.8,66.6,102.8z
				"/>
			<path class="st5" d="M70.7,102.8l0.1-2l0-0.9l-0.6-1.1l-1.4-2.3c0.1,0,0.1,0,0.2,0c0.1,0,0.1,0,0.2,0l0.2,0.4
				c0,0.1,0.2,0.3,0.4,0.7l1.2,2.1l1.1-1.6l0.7-1c0.1-0.1,0.1-0.2,0.3-0.4c0.1,0,0.1,0,0.2,0c0.1,0,0.1,0,0.2,0l-2.3,3.4
				c0,0.2,0,0.3,0,0.4l-0.1,1.2c0,0.2,0,0.4,0,0.6l0,0.6c-0.1,0-0.1,0-0.2,0C70.8,102.8,70.8,102.8,70.7,102.8z"/>
			<path class="st5" d="M75.8,102.8l0.1-0.8l0.3-3.4l0.1-2c0.1,0,0.2,0,0.3,0c0.1,0,0.2,0,0.3,0l0.2,0.6c0.1,0.2,0.2,0.5,0.4,1
				l1.2,3.4l0.3,0.9l2.4-5.3c0.1-0.1,0.1-0.3,0.2-0.5c0.1,0,0.2,0,0.3,0c0.1,0,0.2,0,0.3,0l0,2.6c0,0.6,0,1,0,1.3c0,1,0,1.7,0,2.3
				c-0.1,0-0.2,0-0.2,0c-0.1,0-0.1,0-0.2,0l0.1-4c0-0.5,0-0.9,0-1.3v-0.6L81,98.6l-1.9,4.2c-0.1,0-0.2,0-0.2,0c-0.1,0-0.2,0-0.2,0
				l-2-5.5l-0.1-0.4l0,0.5c0,0.1,0,0.4-0.1,0.9l-0.2,3.4c0,0.1,0,0.3,0,0.4c0,0.1,0,0.4,0,0.6c-0.1,0-0.1,0-0.2,0
				C75.9,102.8,75.8,102.8,75.8,102.8z"/>
			<path class="st5" d="M83.4,102.8c0.1-0.8,0.1-1.9,0.2-3.2c0-1.3,0.1-2.3,0.1-3c0.7,0,1.3,0,1.9,0l1.7,0c0,0.1,0,0.2,0,0.3l-0.4,0
				c-0.1,0-0.3,0-0.5,0c-0.2,0-0.5,0-0.7,0c-0.7,0-1.3,0-1.6,0l-0.1,2.6c0.5,0,0.9,0,1.3,0c0.5,0,1,0,1.7,0c0,0.1,0,0.2,0,0.3
				l-1.7,0c-0.2,0-0.6,0-1.2,0l-0.1,2.7l1.3,0c0.5,0,0.9,0,1.1,0c0.2,0,0.5,0,0.8,0c0,0.1,0,0.2,0,0.3c-0.7,0-1.3,0-1.6,0
				L83.4,102.8z"/>
			<path class="st5" d="M88,102.8c0.1-0.8,0.1-1.9,0.2-3.2c0-1.3,0.1-2.3,0.1-3c0.7,0,1.3,0,1.9,0l1.7,0c0,0.1,0,0.2,0,0.3l-0.4,0
				c-0.1,0-0.3,0-0.5,0c-0.2,0-0.5,0-0.7,0c-0.7,0-1.3,0-1.6,0l-0.1,2.6c0.5,0,0.9,0,1.3,0c0.5,0,1,0,1.7,0c0,0.1,0,0.2,0,0.3
				l-1.7,0c-0.2,0-0.6,0-1.2,0l-0.1,2.7l1.3,0c0.5,0,0.9,0,1.1,0c0.2,0,0.5,0,0.8,0c0,0.1,0,0.2,0,0.3c-0.7,0-1.3,0-1.6,0L88,102.8z
				"/>
			<path class="st5" d="M93.9,102.8l0.1-1.1l0.2-4.8c-0.8,0-1.4,0-2,0c0-0.1,0-0.2,0-0.3c0.7,0,1.5,0,2.3,0l1.3,0h0.7
				c0,0.1,0,0.2,0,0.3c-0.4,0-0.9,0-1.7,0h-0.3l-0.2,5c0,0.1,0,0.1,0,0.2v0.7c-0.1,0-0.1,0-0.2,0C94.1,102.8,94,102.8,93.9,102.8z"
				/>
			<path class="st5" d="M96.6,102.6c0-0.1,0-0.3,0-0.4c0.6,0.3,1.1,0.4,1.6,0.4c0.3,0,0.5,0,0.7-0.1c0.2-0.1,0.4-0.2,0.5-0.4
				c0.1-0.2,0.2-0.4,0.2-0.6c0-0.1,0-0.2-0.1-0.3c0-0.1-0.1-0.2-0.2-0.3c-0.1-0.1-0.2-0.2-0.4-0.4c-0.2-0.2-0.5-0.4-0.9-0.8
				l-0.4-0.3c-0.1-0.1-0.2-0.2-0.4-0.3c-0.1-0.1-0.2-0.2-0.3-0.3c-0.1-0.1-0.1-0.2-0.2-0.3c0-0.1-0.1-0.2-0.1-0.3c0-0.1,0-0.2,0-0.3
				c0-0.2,0.1-0.5,0.2-0.7c0.1-0.2,0.3-0.4,0.6-0.5c0.3-0.1,0.6-0.2,1-0.2c0.3,0,0.6,0,1.1,0.1c0,0.1,0,0.2,0,0.4
				c-0.3-0.1-0.5-0.2-0.7-0.2c-0.2,0-0.4,0-0.5,0c-0.3,0-0.6,0.1-0.7,0.2c-0.2,0.1-0.3,0.2-0.5,0.4c-0.1,0.2-0.2,0.3-0.2,0.5
				c0,0.1,0,0.2,0,0.3c0,0.1,0.1,0.2,0.2,0.3c0.1,0.1,0.2,0.2,0.3,0.3c0.1,0.1,0.3,0.2,0.4,0.4c0.2,0.1,0.4,0.3,0.6,0.6
				c0.3,0.2,0.4,0.4,0.6,0.5c0.1,0.1,0.2,0.2,0.3,0.3c0.1,0.1,0.2,0.2,0.2,0.3c0.1,0.1,0.1,0.2,0.1,0.3c0,0.1,0,0.2,0,0.4
				c0,0.3-0.1,0.5-0.2,0.8c-0.1,0.2-0.4,0.4-0.6,0.5c-0.3,0.1-0.6,0.2-0.9,0.2c-0.2,0-0.4,0-0.7-0.1
				C97.2,102.8,96.9,102.7,96.6,102.6z"/>
			<path class="st5" d="M104.1,102.8l0.1-1.1l0.2-4.8c-0.8,0-1.4,0-2,0c0-0.1,0-0.2,0-0.3c0.7,0,1.5,0,2.3,0l1.3,0h0.7
				c0,0.1,0,0.2,0,0.3c-0.4,0-0.9,0-1.7,0h-0.3l-0.2,5c0,0.1,0,0.1,0,0.2v0.7c-0.1,0-0.1,0-0.2,0
				C104.3,102.8,104.2,102.8,104.1,102.8z"/>
			<path class="st5" d="M107.1,102.8c0.1-0.8,0.1-1.9,0.2-3.2c0-1.3,0.1-2.3,0.1-3c0.7,0,1.3,0,1.9,0l1.7,0c0,0.1,0,0.2,0,0.3
				l-0.4,0c-0.1,0-0.3,0-0.5,0c-0.2,0-0.5,0-0.7,0c-0.7,0-1.3,0-1.6,0l-0.1,2.6c0.5,0,0.9,0,1.3,0c0.5,0,1,0,1.7,0
				c0,0.1,0,0.2,0,0.3l-1.7,0c-0.2,0-0.6,0-1.2,0l-0.1,2.7l1.3,0c0.5,0,0.9,0,1.1,0c0.2,0,0.5,0,0.8,0c0,0.1,0,0.2,0,0.3
				c-0.7,0-1.3,0-1.6,0L107.1,102.8z"/>
			<path class="st5" d="M116.3,102.3c0,0.1,0,0.2-0.1,0.4c-0.3,0.1-0.6,0.1-0.9,0.2c-0.3,0-0.5,0-0.7,0c-0.4,0-0.9-0.1-1.3-0.2
				c-0.4-0.1-0.7-0.4-1-0.6c-0.3-0.3-0.5-0.6-0.6-1c-0.1-0.4-0.2-0.8-0.2-1.2c0-0.5,0.1-0.9,0.2-1.4c0.2-0.4,0.4-0.8,0.7-1.1
				c0.3-0.3,0.7-0.5,1.1-0.7c0.4-0.1,0.9-0.2,1.4-0.2c0.2,0,0.3,0,0.5,0c0.2,0,0.3,0,0.5,0c0.1,0,0.3,0.1,0.5,0.1c0,0.1,0,0.3,0,0.4
				c-0.3-0.1-0.6-0.2-0.9-0.2c-0.2,0-0.5-0.1-0.7-0.1c-0.4,0-0.8,0.1-1.1,0.2c-0.4,0.1-0.7,0.3-1,0.6c-0.3,0.3-0.5,0.6-0.6,1
				c-0.1,0.4-0.2,0.8-0.2,1.2c0,0.4,0.1,0.8,0.2,1.2c0.1,0.4,0.3,0.7,0.6,0.9c0.2,0.2,0.5,0.4,0.9,0.6c0.3,0.1,0.7,0.2,1.1,0.2
				C115.2,102.6,115.7,102.5,116.3,102.3z"/>
			<path class="st5" d="M117.2,102.8c0.1-1.3,0.1-2.5,0.2-3.7c0-1.1,0.1-2,0.1-2.6c0.1,0,0.1,0,0.2,0c0.1,0,0.1,0,0.2,0l-0.1,2.9
				h4.2l0.1-2.3c0-0.1,0-0.3,0-0.6c0.1,0,0.2,0,0.2,0c0.1,0,0.1,0,0.2,0c-0.1,1.9-0.2,4-0.2,6.2c-0.1,0-0.1,0-0.2,0
				c-0.1,0-0.1,0-0.2,0c0.1-1.1,0.1-2.1,0.1-3h-4.2l-0.1,2.2l0,0.8c-0.1,0-0.1,0-0.2,0C117.4,102.8,117.3,102.8,117.2,102.8z"/>
			<path class="st5" d="M123.5,102.8l0.1-1.8l0.1-3.7l0-0.7c0.1,0,0.2,0,0.3,0c0.1,0,0.2,0,0.3,0c0.2,0.2,0.3,0.4,0.4,0.6
				c0.1,0.2,0.3,0.5,0.6,0.9l2.3,3.4c0.2,0.3,0.5,0.7,0.7,1l0.2-5.2l0-0.7c0.1,0,0.1,0,0.2,0c0,0,0.1,0,0.2,0l-0.1,1.4l-0.1,3.9
				l0,0.9c-0.1,0-0.2,0-0.3,0c-0.1,0-0.2,0-0.3,0l-0.8-1.2l-2.9-4.2l-0.3-0.5c0,0.2,0,0.3,0,0.5l-0.2,4.3l0,1.1c-0.1,0-0.1,0-0.2,0
				C123.7,102.8,123.6,102.8,123.5,102.8z"/>
			<path class="st5" d="M133.2,96.5c0.4,0,0.8,0.1,1.2,0.2c0.4,0.1,0.7,0.3,1,0.6c0.3,0.3,0.5,0.6,0.6,1c0.1,0.4,0.2,0.8,0.2,1.2
				c0,0.5-0.1,0.9-0.2,1.4c-0.1,0.4-0.4,0.8-0.6,1.1c-0.3,0.3-0.6,0.5-1.1,0.7c-0.4,0.2-0.9,0.2-1.3,0.2c-0.4,0-0.9-0.1-1.3-0.2
				c-0.4-0.1-0.8-0.3-1-0.6c-0.3-0.3-0.5-0.6-0.6-1c-0.1-0.4-0.2-0.8-0.2-1.2c0-0.5,0.1-0.9,0.2-1.4c0.2-0.4,0.4-0.8,0.7-1.1
				c0.3-0.3,0.7-0.5,1.1-0.7C132.3,96.5,132.8,96.5,133.2,96.5z M133.2,96.7c-0.4,0-0.8,0.1-1.2,0.2c-0.4,0.1-0.7,0.3-1,0.6
				c-0.3,0.3-0.5,0.6-0.6,1c-0.1,0.4-0.2,0.8-0.2,1.2c0,0.4,0.1,0.8,0.2,1.2c0.1,0.4,0.3,0.7,0.6,0.9c0.3,0.2,0.6,0.4,0.9,0.5
				c0.4,0.1,0.7,0.2,1.1,0.2c0.4,0,0.8-0.1,1.2-0.2c0.4-0.1,0.7-0.3,0.9-0.6c0.3-0.3,0.5-0.6,0.6-1c0.1-0.4,0.2-0.8,0.2-1.2
				c0-0.4-0.1-0.8-0.2-1.2c-0.1-0.4-0.3-0.7-0.6-0.9c-0.2-0.3-0.6-0.4-0.9-0.6C134,96.8,133.6,96.7,133.2,96.7z"/>
			<path class="st5" d="M137.1,102.8l0.1-1.4l0.1-3.3l0-1.5c0.1,0,0.1,0,0.2,0c0.1,0,0.1,0,0.2,0l-0.2,3.6l-0.1,2.4l0.9,0
				c0.7,0,1.1,0,1.4,0c0.3,0,0.5,0,0.7,0c0,0.1,0,0.2,0,0.3c-0.6,0-1.2,0-1.6,0L137.1,102.8z"/>
			<path class="st5" d="M144.3,96.5c0.4,0,0.8,0.1,1.2,0.2c0.4,0.1,0.7,0.3,1,0.6c0.3,0.3,0.5,0.6,0.6,1c0.1,0.4,0.2,0.8,0.2,1.2
				c0,0.5-0.1,0.9-0.2,1.4c-0.1,0.4-0.4,0.8-0.6,1.1c-0.3,0.3-0.6,0.5-1.1,0.7c-0.4,0.2-0.9,0.2-1.3,0.2c-0.4,0-0.9-0.1-1.3-0.2
				c-0.4-0.1-0.8-0.3-1-0.6c-0.3-0.3-0.5-0.6-0.6-1c-0.1-0.4-0.2-0.8-0.2-1.2c0-0.5,0.1-0.9,0.2-1.4c0.2-0.4,0.4-0.8,0.7-1.1
				c0.3-0.3,0.7-0.5,1.1-0.7C143.4,96.5,143.8,96.5,144.3,96.5z M144.2,96.7c-0.4,0-0.8,0.1-1.2,0.2c-0.4,0.1-0.7,0.3-1,0.6
				c-0.3,0.3-0.5,0.6-0.6,1c-0.1,0.4-0.2,0.8-0.2,1.2c0,0.4,0.1,0.8,0.2,1.2c0.1,0.4,0.3,0.7,0.6,0.9c0.3,0.2,0.6,0.4,0.9,0.5
				c0.4,0.1,0.7,0.2,1.1,0.2c0.4,0,0.8-0.1,1.2-0.2c0.4-0.1,0.7-0.3,0.9-0.6c0.3-0.3,0.5-0.6,0.6-1c0.1-0.4,0.2-0.8,0.2-1.2
				c0-0.4-0.1-0.8-0.2-1.2c-0.1-0.4-0.3-0.7-0.6-0.9c-0.2-0.3-0.6-0.4-0.9-0.6C145,96.8,144.6,96.7,144.2,96.7z"/>
			<path class="st5" d="M151.7,99.3c0.6,0,1,0,1.2,0l0.8,0l-0.1,1.4l-0.1,1.8c-0.5,0.1-0.9,0.2-1.3,0.2c-0.4,0.1-0.7,0.1-1,0.1
				c-0.5,0-0.9-0.1-1.3-0.2c-0.4-0.1-0.8-0.3-1.1-0.6c-0.3-0.3-0.5-0.6-0.7-1c-0.1-0.4-0.2-0.8-0.2-1.2c0-0.5,0.1-1,0.3-1.4
				c0.2-0.5,0.4-0.8,0.8-1.1c0.3-0.3,0.7-0.5,1.1-0.6c0.4-0.1,0.9-0.2,1.4-0.2c0.3,0,0.6,0,0.9,0.1c0.3,0,0.6,0.1,1,0.2
				c0,0.2,0,0.3,0,0.4c-0.4-0.1-0.8-0.2-1.1-0.3c-0.3-0.1-0.6-0.1-0.9-0.1c-0.4,0-0.9,0.1-1.3,0.2c-0.4,0.1-0.8,0.3-1,0.6
				c-0.3,0.3-0.5,0.6-0.6,1c-0.2,0.4-0.2,0.8-0.2,1.3c0,0.4,0.1,0.8,0.2,1.1c0.1,0.4,0.3,0.6,0.6,0.9c0.3,0.2,0.6,0.4,0.9,0.5
				c0.4,0.1,0.8,0.2,1.2,0.2c0.2,0,0.3,0,0.5,0c0.2,0,0.4,0,0.5-0.1c0.2,0,0.3-0.1,0.4-0.1c0.1,0,0.3-0.1,0.4-0.1l0.1-2.7h-0.5
				c-0.1,0-0.3,0-0.4,0l-0.7,0C151.7,99.6,151.7,99.5,151.7,99.3L151.7,99.3z"/>
			<path class="st5" d="M156,102.8l0.1-2l0-0.9l-0.6-1.1l-1.4-2.3c0.1,0,0.1,0,0.2,0c0.1,0,0.1,0,0.2,0l0.2,0.4
				c0,0.1,0.2,0.3,0.4,0.7l1.2,2.1l1.1-1.6l0.7-1c0.1-0.1,0.1-0.2,0.3-0.4c0.1,0,0.1,0,0.2,0c0.1,0,0.1,0,0.2,0l-2.3,3.4
				c0,0.2,0,0.3,0,0.4l-0.1,1.2c0,0.2,0,0.4,0,0.6l0,0.6c-0.1,0-0.1,0-0.2,0C156.1,102.8,156,102.8,156,102.8z"/>
		</g>
	</g>
</g>
</svg>
