<?xml version="1.0" encoding="utf-8"?>
<!-- Generator: Adobe Illustrator 21.0.0, SVG Export Plug-In . SVG Version: 6.00 Build 0)  -->
<svg version="1.1" id="레이어_1" xmlns="http://www.w3.org/2000/svg" xmlns:xlink="http://www.w3.org/1999/xlink" x="0px"
	 y="0px" viewBox="0 0 36 36" style="enable-background:new 0 0 36 36;" xml:space="preserve">
<style type="text/css">
	.st0{fill:#FFFFFF;}
</style>
<path class="st0" d="M23.2,21h-1.2l-0.4-0.4c1.5-1.7,2.4-3.9,2.4-6.3c0-5.4-4.4-9.8-9.8-9.8s-9.8,4.4-9.8,9.8S8.9,24,14.2,24
	c2.4,0,4.6-0.9,6.3-2.4l0.4,0.4v1.2l7.5,7.5l2.2-2.2L23.2,21z M14.2,21c-3.7,0-6.8-3-6.8-6.8s3-6.8,6.8-6.8s6.8,3,6.8,6.8
	S18,21,14.2,21z"/>
</svg>
