<?xml version="1.0" encoding="utf-8"?>
<!-- Generator: Adobe Illustrator 21.0.0, SVG Export Plug-In . SVG Version: 6.00 Build 0)  -->
<svg version="1.1" id="레이어_1" xmlns="http://www.w3.org/2000/svg" xmlns:xlink="http://www.w3.org/1999/xlink" x="0px"
	 y="0px" viewBox="0 0 229 99.9" style="enable-background:new 0 0 229 99.9;" xml:space="preserve">
<style type="text/css">
	.st0{fill:#FFFFFF;}
</style>
<title>Logo_height100</title>
<path class="st0" d="M72,50.8H60.8c-4.2-0.2-8.4-1.1-12.2-2.8C42.8,45.3,38,39.4,38,39.4L10.2,0H25c0,0,6.5,0.6,11.3,3.3
	C40.2,5.5,47,15.8,47,15.8L72,50.8z"/>
<path class="st0" d="M73.5,50.8h7.1c1.6-0.1,3.2-0.4,4.7-1.1c1.6-0.8,3-2,4.1-3.4l10.8-15.3h-2.6c0,0-5.9-0.2-9.9,2.6
	c-4,2.8-8.4,8.9-8.4,8.9L73.5,50.8z"/>
<path class="st0" d="M155.7,33.6h11.1c4.6,0.1,9,1.2,13.1,3.3c3.8,2.3,7.1,5.2,9.8,8.7L229,99.8h-15.1c0,0-7.8,0.2-11.6-3.3
	c-3-2.9-5.6-6.1-8-9.5L155.7,33.6z"/>
<path class="st0" d="M95.3,50h13.2c1.1,0,2.1-0.2,3.1-0.6c0.8-0.4,1.5-1,1.9-1.7l4.9-7.1l-6.5-9.3h-0.6c-0.9-0.1-1.8,0.1-2.6,0.4
	c-0.8,0.4-1.4,1-1.9,1.7L95.3,50z"/>
<path class="st0" d="M147,55c0.6-0.1,1.2-0.3,1.8-0.7c0.7-0.5,1.3-1.2,1.8-1.9l7.6-10.9l-5.4-7.9l-10.3,14.7L135.2,38
	c-1.2-2-2.8-3.7-4.8-5c-3-1.9-7.6-1.8-7.6-1.8H115l13,18.4c1.3,1.7,2.9,3.1,4.8,4.1c1.9,0.9,3.9,1.3,5.9,1.2"/>
<path class="st0" d="M5.8,79.1L5.2,77L0.1,62.8h2.3l0.4,1.3C2.9,64.4,3,64.7,3.1,65l4.2,12.3l6-12.3c0.1-0.3,0.3-0.6,0.4-0.8
	c0.1-0.3,0.3-0.7,0.6-1.3h2.4c-0.7,1.3-1.7,3.1-2.9,5.4l-3.1,6C9.9,76,9.1,77.6,8.5,79H7.1L5.8,79.1z"/>
<path class="st0" d="M16.7,79.1l0.2-3l0.2-5.1l0.1-3.9h2.2c-0.1,1.2-0.2,2.5-0.2,3.9S19,73.7,19,75.3c0,1.6-0.1,2.8-0.1,3.7h-1.1
	L16.7,79.1z M17.2,64.5c0-0.7,0-1.3,0-1.7h1.1h1.1c0,0.2,0,0.8-0.1,1.7H17.2z"/>
<path class="st0" d="M21,78.8L20.9,78c0-0.1,0-0.4-0.1-0.9c1.1,0.5,2.2,0.8,3.4,0.8c0.5,0,0.9-0.1,1.4-0.2c0.3-0.1,0.6-0.3,0.8-0.6
	c0.2-0.3,0.3-0.6,0.3-0.9c0-0.2,0-0.3-0.1-0.5c-0.1-0.2-0.1-0.3-0.2-0.5c-0.1-0.2-0.3-0.4-0.5-0.5c-0.2-0.2-0.6-0.5-1.3-1
	c-0.6-0.5-1.1-0.9-1.5-1.2c-0.3-0.3-0.6-0.6-0.8-0.9c-0.2-0.3-0.4-0.6-0.5-0.9c-0.1-0.3-0.2-0.6-0.2-0.9c0-0.5,0.2-1,0.5-1.5
	c0.3-0.5,0.8-0.9,1.4-1.1c0.7-0.2,1.4-0.4,2.1-0.3c1,0,2,0.1,3,0.3c0,0.6,0,1.2,0.1,1.7c-0.8-0.3-1.7-0.5-2.6-0.5
	c-0.4,0-0.9,0.1-1.3,0.2c-0.3,0.1-0.7,0.3-0.9,0.6c-0.2,0.2-0.3,0.5-0.3,0.8c0,0.2,0,0.4,0.1,0.6c0.1,0.2,0.2,0.4,0.3,0.6
	c0.2,0.2,0.4,0.4,0.6,0.6c0.2,0.2,0.7,0.6,1.3,1.1c0.5,0.4,1,0.8,1.4,1.2c0.2,0.2,0.5,0.5,0.6,0.8c0.2,0.3,0.3,0.5,0.4,0.8
	c0.1,0.3,0.1,0.6,0.1,0.8c0,0.5-0.2,1.1-0.5,1.5c-0.4,0.5-0.9,0.9-1.5,1.1c-0.7,0.3-1.4,0.4-2.2,0.4c-0.3,0-0.7,0-1.2-0.1
	s-0.9-0.1-1.2-0.2S21.4,79,21,78.8z"/>
<path class="st0" d="M41.8,79.1h-1h-1l0.1-2.3c-0.1,0.3-0.3,0.6-0.5,0.8c-0.2,0.2-0.3,0.4-0.5,0.6c-0.2,0.2-0.4,0.3-0.6,0.5
	c-0.2,0.1-0.5,0.3-0.8,0.3c-0.3,0.1-0.7,0.2-1,0.2c-0.4,0.1-0.8,0.1-1.2,0.1c-0.8,0-1.7-0.1-2.5-0.4c-0.6-0.3-1.2-0.7-1.5-1.2
	c-0.4-0.7-0.6-1.4-0.5-2.2c0-0.1,0-0.4,0-0.7s0-0.8,0.1-1.3l0.2-3.9v-1.3c0-0.3,0-0.7,0-1.1h2.1c-0.1,1.4-0.2,2.9-0.3,4.5
	s-0.2,2.7-0.2,3.2c0,0.6,0.2,1.2,0.4,1.7c0.2,0.5,0.6,0.8,1.1,1c0.6,0.2,1.2,0.3,1.8,0.3c0.6,0,1.1-0.1,1.7-0.3
	c0.4-0.2,0.8-0.4,1.2-0.7c0.4-0.4,0.7-0.8,0.9-1.3c0.2-0.5,0.3-1,0.4-1.6c0.1-0.5,0.1-1.3,0.2-2.4c0.1-1.4,0.1-2.9,0.1-4.3h2.1
	c-0.1,1.4-0.3,3.6-0.4,6.5C41.9,75.1,41.8,77,41.8,79.1z"/>
<path class="st0" d="M45.2,69c0.1-0.3,0.2-0.9,0.2-1.5c0.8-0.2,1.6-0.4,2.5-0.5c0.7-0.1,1.3-0.1,2-0.1c0.7,0,1.3,0.1,2,0.2
	c0.6,0.1,1.1,0.3,1.5,0.6c0.4,0.2,0.7,0.6,0.8,1c0.1,0.4,0.2,0.8,0.2,1.2c0,0.6,0,1.5-0.1,2.8s-0.1,2.5-0.2,3.6s-0.1,2.1-0.1,2.9h-1
	H52l0.2-3.2l0.2-3.8c-0.3,0.2-0.5,0.4-0.6,0.4c-0.2,0.1-0.3,0.2-0.5,0.2c-0.2,0.1-0.4,0.1-0.6,0.2l-1.2,0.3c-0.6,0.2-1,0.3-1.3,0.4
	c-0.4,0.1-0.9,0.3-1.3,0.5c-0.3,0.2-0.6,0.3-0.8,0.6c-0.2,0.2-0.3,0.4-0.5,0.6c-0.1,0.3-0.2,0.5-0.2,0.8c0,0.4,0.1,0.8,0.4,1.1
	c0.3,0.3,0.6,0.5,1,0.7c0.4,0.1,0.9,0.2,1.4,0.2c0.3,0,0.7,0,1-0.1c0.5-0.1,1-0.2,1.5-0.4c-0.2,0.5-0.3,0.9-0.4,1.4
	c-0.5,0.1-0.9,0.2-1.4,0.2c-0.4,0-0.7,0-1,0c-0.9,0-1.7-0.1-2.5-0.4c-0.6-0.2-1.1-0.6-1.4-1.1c-0.3-0.5-0.5-1.1-0.5-1.7
	c0-0.3,0-0.7,0.2-1c0.1-0.3,0.2-0.6,0.4-0.8c0.2-0.3,0.5-0.5,0.8-0.7c0.3-0.3,0.7-0.5,1.1-0.6c0.4-0.2,0.8-0.3,1.3-0.5
	s1.3-0.4,2.3-0.7c0.3-0.1,0.6-0.2,0.9-0.2l0.7-0.2c0.2-0.1,0.3-0.2,0.5-0.3c0.1-0.1,0.2-0.2,0.3-0.4c0.1-0.1,0.2-0.3,0.3-0.5
	c0.1-0.2,0.1-0.3,0.1-0.5c0-0.4-0.1-0.7-0.4-1c-0.3-0.3-0.6-0.5-1-0.6c-0.5-0.1-1-0.2-1.4-0.2c-0.5,0-1.1,0-1.6,0.1
	c-0.5,0.1-0.9,0.2-1.4,0.3C46.2,68.6,45.8,68.8,45.2,69z"/>
<path class="st0" d="M56.7,79.1c0.2-2.4,0.3-5.3,0.5-8.7c0.1-2.4,0.2-4.9,0.2-7.5h2.2l-0.4,7l-0.3,7V79h-1L56.7,79.1z"/>
<path class="st0" d="M66.9,79.1l0.2-2.2l0.7-8.8l0.4-5.2h3.1l0.3,1c0.1,0.3,0.2,0.6,0.3,1s0.3,1,0.6,1.9L74,71l1.8,5.7l2.4-5.7
	l2.7-6.1c0.1-0.2,0.2-0.5,0.3-0.7l0.4-1.3h3.1l-0.2,5.7l-0.1,3.7c0,0.3,0,0.7,0,1v4.3c0,0.2,0,0.7,0,1.5h-1h-1.1l0.1-1.5l0.2-8.5
	c0-1,0-2,0-3.2v-1l-5.2,12.5l-0.7,1.7h-1.1h-1.1l-1.4-4.4l-1.5-4.4L70.2,66c-0.1-0.2-0.2-0.5-0.3-1l-0.2,1.4L69,76.5
	c0,0.3,0,0.7,0,1s0,0.8,0,1.5h-1L66.9,79.1z"/>
<path class="st0" d="M97,77.2c-0.1,0.4-0.2,1-0.3,1.7c-0.7,0.2-1.3,0.3-2,0.4c-0.6,0.1-1.1,0.1-1.7,0.1c-0.9,0-1.8-0.1-2.7-0.4
	c-0.8-0.2-1.5-0.7-2-1.2c-0.5-0.6-1-1.3-1.2-2c-0.2-0.8-0.4-1.6-0.4-2.4c0-1.1,0.2-2.2,0.7-3.3c0.4-1,1.1-1.8,2-2.4
	c1-0.6,2.2-0.9,3.4-0.9c0.7,0,1.4,0.1,2.1,0.3c0.6,0.2,1.2,0.5,1.6,1c0.4,0.4,0.8,1,1,1.6c0.2,0.7,0.4,1.4,0.4,2.1
	c0,0.3,0,0.6-0.1,0.8h-9c0,0.4,0,0.8,0,1c0,0.8,0.2,1.6,0.5,2.3c0.3,0.7,0.9,1.2,1.5,1.6c0.7,0.4,1.5,0.6,2.3,0.5
	C94.6,78,95.8,77.7,97,77.2z M89,71.5H96c0-0.4,0-0.8-0.1-1.2c-0.1-0.3-0.2-0.6-0.3-0.9c-0.1-0.3-0.4-0.6-0.6-0.8
	c-0.3-0.2-0.6-0.4-0.9-0.5c-0.4-0.1-0.8-0.2-1.2-0.2c-0.4,0-0.9,0.1-1.3,0.2c-0.4,0.1-0.8,0.3-1.1,0.5c-0.3,0.2-0.6,0.5-0.8,0.8
	c-0.2,0.3-0.4,0.6-0.5,0.9C89.2,70.8,89,71.2,89,71.5z"/>
<path class="st0" d="M110.6,79.1h-1h-1l0.1-2.6c-0.2,0.3-0.4,0.7-0.7,1c-0.2,0.2-0.4,0.5-0.7,0.7c-0.3,0.2-0.6,0.4-0.9,0.6
	c-0.3,0.2-0.7,0.3-1.1,0.4c-1.1,0.3-2.3,0.2-3.4-0.3c-0.6-0.3-1.2-0.7-1.7-1.2c-0.5-0.5-0.8-1.1-1-1.8c-0.2-0.7-0.3-1.4-0.3-2.1
	c0-1,0.2-2,0.6-2.9c0.4-0.9,0.9-1.7,1.6-2.4c0.7-0.6,1.5-1.1,2.4-1.3c0.9-0.3,1.9-0.4,2.8-0.4c0.8,0,1.7,0.1,2.5,0.2
	c0-0.9,0-1.6,0-2.2c0-0.8,0-1.5,0-2h2.2l-0.3,6.7l-0.2,7.7L110.6,79.1L110.6,79.1z M108.9,68.5c-0.4-0.1-0.8-0.2-1.2-0.3
	c-0.3,0-0.7-0.1-1-0.1c-0.7,0-1.5,0.1-2.2,0.3c-0.7,0.2-1.3,0.6-1.8,1.1c-0.5,0.5-1,1.2-1.2,1.9c-0.3,0.7-0.4,1.5-0.4,2.3
	c0,0.7,0.1,1.4,0.4,2.1c0.3,0.6,0.7,1.1,1.2,1.5c0.6,0.4,1.3,0.6,2,0.5c0.4,0,0.8-0.1,1.2-0.2c0.4-0.1,0.7-0.3,1-0.5
	c0.3-0.3,0.6-0.6,0.9-1c0.3-0.4,0.5-0.9,0.6-1.4c0.2-0.6,0.3-1.3,0.3-1.9c0-0.4,0.1-1.1,0.1-2.2L108.9,68.5z"/>
<path class="st0" d="M113.3,79.1l0.2-3l0.2-5.1l0.1-3.9h2.2c-0.1,1.2-0.2,2.5-0.2,3.9c-0.1,1.3-0.1,2.8-0.2,4.4
	c0,1.6-0.1,2.8-0.1,3.7h-1.1L113.3,79.1z M113.8,64.5c0-0.7,0-1.3,0-1.7l1.2,0h1.1c0,0.2,0,0.8-0.1,1.7L113.8,64.5L113.8,64.5z"/>
<path class="st0" d="M118.8,69c0.1-0.3,0.2-0.9,0.2-1.5c0.8-0.2,1.6-0.4,2.5-0.5c0.7-0.1,1.3-0.1,2-0.1c0.7,0,1.3,0.1,2,0.2
	c0.6,0.1,1.1,0.3,1.6,0.6c0.4,0.2,0.7,0.6,0.8,1c0.1,0.4,0.2,0.8,0.2,1.2c0,0.6,0,1.5-0.1,2.8s-0.1,2.5-0.2,3.6s-0.1,2.1-0.1,2.9h-1
	h-1.1l0.2-3.2l0.2-3.8c-0.3,0.2-0.5,0.4-0.6,0.4c-0.1,0.1-0.3,0.2-0.5,0.2c-0.2,0.1-0.4,0.2-0.6,0.2l-1.2,0.3
	c-0.6,0.2-1,0.3-1.3,0.4c-0.4,0.1-0.9,0.3-1.3,0.5c-0.3,0.2-0.6,0.3-0.8,0.6c-0.2,0.2-0.3,0.4-0.4,0.6c-0.1,0.3-0.2,0.5-0.2,0.8
	c0,0.4,0.1,0.8,0.4,1.1c0.3,0.3,0.6,0.5,1,0.7c0.4,0.1,0.9,0.2,1.4,0.2c0.3,0,0.7,0,1-0.1c0.5-0.1,1-0.2,1.5-0.4
	c-0.2,0.5-0.3,0.9-0.4,1.4c-0.5,0.1-0.9,0.2-1.4,0.2c-0.4,0-0.7,0-1,0c-0.9,0-1.7-0.1-2.5-0.4c-0.6-0.2-1.1-0.6-1.4-1.1
	c-0.3-0.5-0.5-1.1-0.4-1.7c0-0.3,0-0.7,0.2-1c0.1-0.3,0.2-0.6,0.4-0.8c0.2-0.3,0.5-0.5,0.8-0.7c0.3-0.2,0.7-0.4,1.1-0.6
	c0.4-0.2,0.8-0.3,1.3-0.5s1.3-0.4,2.4-0.6c0.3-0.1,0.6-0.2,0.9-0.2l0.6-0.2c0.2-0.1,0.3-0.2,0.5-0.3c0.1-0.1,0.3-0.2,0.4-0.4
	c0.1-0.1,0.2-0.3,0.3-0.5c0.1-0.2,0.1-0.3,0.1-0.5c0-0.4-0.1-0.7-0.4-1c-0.3-0.3-0.6-0.5-1-0.6c-0.5-0.1-1-0.2-1.4-0.2
	c-0.5,0-1.1,0-1.6,0.1c-0.5,0.1-0.9,0.2-1.4,0.3C119.9,68.6,119.4,68.7,118.8,69z"/>
<path class="st0" d="M136,79.1c0.2-2,0.3-4.5,0.5-7.5s0.2-5.9,0.3-8.8h2.4l-0.4,7.5l-0.3,7.1h2.2h3.5c0.7,0,1.4,0,2-0.1
	c0,0.5-0.1,1.1-0.1,1.7h-4.8L136,79.1z"/>
<path class="st0" d="M148,69c0.1-0.3,0.1-0.9,0.2-1.5c0.8-0.2,1.6-0.4,2.5-0.5c0.7-0.1,1.3-0.1,2-0.1c0.7,0,1.3,0.1,2,0.2
	c0.6,0.1,1.1,0.3,1.6,0.6c0.4,0.2,0.7,0.6,0.8,1c0.1,0.4,0.2,0.8,0.2,1.2c0,0.6,0,1.5-0.1,2.8s-0.1,2.5-0.2,3.6s-0.1,2.1-0.1,2.9h-1
	h-1.1l0.3-3.2l0.2-3.8c-0.3,0.2-0.5,0.4-0.6,0.4c-0.2,0.1-0.3,0.2-0.5,0.2c-0.2,0.1-0.4,0.1-0.6,0.2l-1.2,0.3
	c-0.6,0.2-1,0.3-1.3,0.4c-0.4,0.1-0.9,0.3-1.3,0.5c-0.3,0.2-0.6,0.3-0.8,0.6c-0.2,0.2-0.3,0.4-0.4,0.6c-0.1,0.3-0.2,0.5-0.2,0.8
	c0,0.4,0.1,0.8,0.4,1.1c0.3,0.3,0.6,0.5,1,0.7c0.4,0.1,0.9,0.2,1.4,0.2c0.3,0,0.7,0,1-0.1c0.5-0.1,1-0.2,1.5-0.4
	c-0.2,0.5-0.3,0.9-0.4,1.4c-0.5,0.1-0.9,0.2-1.4,0.2c-0.4,0-0.7,0-1,0c-0.9,0-1.7-0.1-2.5-0.4c-0.6-0.2-1.1-0.6-1.4-1.1
	c-0.3-0.5-0.5-1.1-0.4-1.7c0-0.3,0-0.7,0.2-1c0.1-0.3,0.2-0.6,0.4-0.8c0.2-0.3,0.5-0.5,0.8-0.7c0.3-0.2,0.7-0.4,1.1-0.6
	c0.4-0.2,0.8-0.3,1.3-0.5s1.3-0.4,2.4-0.6c0.4-0.1,0.6-0.2,0.9-0.2l0.6-0.2c0.2-0.1,0.3-0.2,0.5-0.3c0.1-0.1,0.3-0.2,0.4-0.4
	c0.1-0.1,0.2-0.3,0.3-0.5c0.1-0.2,0.1-0.3,0.1-0.5c0-0.4-0.1-0.7-0.4-1c-0.3-0.3-0.6-0.5-1-0.6c-0.5-0.1-1-0.2-1.4-0.2
	c-0.5,0-1.1,0-1.6,0.1c-0.5,0.1-0.9,0.2-1.4,0.3C149,68.6,148.6,68.8,148,69z"/>
<path class="st0" d="M159.6,79.1l0.1-1.3c0-0.2,0-0.7,0.1-1.3l0.3-8l0.1-5.6h2.2c-0.1,1-0.2,2.5-0.3,4.4c0.8-0.2,1.5-0.3,2-0.4
	c0.5-0.1,1-0.1,1.6-0.1c0.9,0,1.8,0.1,2.6,0.4c0.7,0.2,1.4,0.7,1.9,1.3c0.5,0.6,0.8,1.2,1.1,1.9c0.2,0.7,0.3,1.5,0.3,2.2
	c0,0.9-0.1,1.8-0.4,2.6c-0.2,0.8-0.6,1.6-1.1,2.3c-0.5,0.6-1.1,1.1-1.8,1.4c-0.7,0.3-1.6,0.5-2.4,0.4c-0.4,0-0.9,0-1.3-0.2
	c-0.4-0.1-0.7-0.2-1.1-0.4c-0.3-0.2-0.6-0.4-0.8-0.6c-0.2-0.2-0.4-0.4-0.6-0.7c-0.2-0.3-0.3-0.6-0.5-0.9V79h-1L159.6,79.1z
	 M162,68.8c-0.1,1.3-0.1,2.2-0.1,2.6c0,0.4,0,0.9,0,1.5c0,1,0.1,1.9,0.4,2.9c0.3,0.6,0.7,1.2,1.3,1.5c0.6,0.3,1.3,0.5,1.9,0.5
	c0.8,0,1.5-0.2,2.1-0.6c0.7-0.5,1.1-1.2,1.4-1.9c0.3-0.9,0.5-1.8,0.5-2.7c0.1-1.1-0.3-2.3-1-3.2c-0.8-0.8-2-1.3-3.1-1.2
	c-0.5,0-1,0-1.5,0.1C163.3,68.5,162.6,68.6,162,68.8z"/>
<path class="st0" d="M2.4,90.5l-1.7-4.9l-0.4-1.2c-0.1-0.2-0.1-0.4-0.2-0.7h0.5l0.3,0.9l1.9,5.6l0.2-0.5l1.8-3.6
	c-0.2-0.6-0.3-1-0.5-1.4l-0.4-1.1h0.4c0.2,0.7,0.4,1.3,0.6,2l0.9-2h0.5l-0.6,1.3c-0.2,0.4-0.4,0.7-0.5,1.2l0.1,0.3l1.1,3.3l0.2,0.5
	l0.3-0.6L7,88.8l2.1-4.6l0.3-0.6h0.5c-0.2,0.4-0.6,1.1-1.1,2.3l-1.3,2.7c-0.3,0.6-0.6,1.3-0.9,1.9H6.1l-0.6-1.7l-0.8-2.3l-0.1,0.2
	c0,0.1-0.1,0.2-0.2,0.5l-1.6,3.2H2.4z"/>
<path class="st0" d="M10.2,90.5c0.1-1.4,0.1-2.8,0.2-4c0-1.2,0.1-2.2,0.1-2.8h0.4l-0.1,3.2h4.7l0.1-2.5c0-0.1,0-0.4,0-0.7H16
	c-0.1,2.1-0.2,4.4-0.3,6.9h-0.4c0.1-1.2,0.1-2.3,0.1-3.3h-4.7l-0.1,2.5v0.9L10.2,90.5L10.2,90.5z"/>
<path class="st0" d="M17.2,90.5c0.1-0.9,0.1-2.1,0.2-3.5c0.1-1.4,0.1-2.5,0.1-3.3h3.9c0,0.1,0,0.2,0,0.4H21h-0.5h-2.6l-0.1,2.8h1.4
	H21c0,0.1,0,0.2,0,0.3h-1.9h-1.4l-0.1,3h2.6h0.9c0,0.1,0,0.2,0,0.4L17.2,90.5L17.2,90.5z"/>
<path class="st0" d="M22.3,90.5l0.1-1.2l0.1-3.8v-1.1v-0.8h2.1c0.3,0,0.7,0,1,0.2c0.2,0.1,0.4,0.3,0.5,0.5c0.1,0.2,0.2,0.5,0.2,0.8
	c0,0.4-0.1,0.7-0.3,1c-0.2,0.3-0.5,0.6-0.8,0.7c-0.4,0.2-0.7,0.3-1.1,0.2H24l2.4,3.3h-0.5l-0.7-1l-1.9-2.7c0.3,0,0.5,0.1,0.8,0.1
	c0.3,0,0.5,0,0.8-0.1c0.2-0.1,0.5-0.2,0.6-0.3c0.2-0.2,0.3-0.3,0.4-0.6c0.1-0.2,0.1-0.4,0.1-0.7c0-0.2,0-0.3,0-0.5
	c0-0.1-0.1-0.3-0.2-0.4c-0.1-0.1-0.2-0.2-0.3-0.2C25.3,84,25.2,84,25.1,84c-0.2,0-0.4,0-0.5,0H23c-0.1,2.7-0.2,4.8-0.2,6.6
	L22.3,90.5L22.3,90.5z"/>
<path class="st0" d="M27.3,90.5c0.1-0.9,0.1-2.1,0.2-3.5s0.1-2.5,0.1-3.3h3.9c0,0.1,0,0.2,0,0.4H31h-0.5h-2.6l-0.1,2.8h1.4H31
	c0,0.1,0,0.2,0,0.3h-1.9h-1.4l-0.1,3h2.6h0.9c0,0.1,0,0.2,0,0.4L27.3,90.5L27.3,90.5z"/>
<path class="st0" d="M39.8,89.9c0,0.1,0,0.3-0.1,0.4c-0.3,0.1-0.7,0.1-1,0.2c-0.3,0-0.5,0-0.8,0.1c-0.5,0-0.9-0.1-1.4-0.2
	c-0.4-0.1-0.8-0.4-1.1-0.7c-0.3-0.3-0.5-0.7-0.7-1.1c-0.1-0.4-0.2-0.9-0.2-1.3c0-0.5,0.1-1,0.3-1.5c0.3-0.9,1-1.6,2-1.9
	c0.5-0.2,1-0.2,1.5-0.2h0.6l0.5,0.1l0.5,0.1c0,0.1,0,0.3,0,0.4c-0.3-0.1-0.7-0.2-1-0.2c-0.2,0-0.4,0-0.7,0c-0.4,0-0.8,0.1-1.2,0.2
	c-0.4,0.1-0.8,0.4-1.1,0.7c-0.3,0.3-0.6,0.7-0.7,1.1c-0.2,0.4-0.2,0.9-0.2,1.3c0,0.4,0.1,0.9,0.2,1.3c0.1,0.4,0.3,0.7,0.6,1
	c0.3,0.3,0.6,0.5,1,0.6c0.4,0.1,0.8,0.2,1.2,0.2C38.5,90.3,39.2,90.1,39.8,89.9z"/>
<path class="st0" d="M40.7,90.5l0.1-1.2l0.1-3.8v-1.1v-0.8h2.2c0.3,0,0.7,0,1,0.2c0.2,0.1,0.4,0.3,0.5,0.5c0.1,0.2,0.2,0.5,0.2,0.8
	c0,0.4-0.1,0.7-0.3,1c-0.2,0.3-0.5,0.6-0.8,0.7c-0.4,0.2-0.7,0.3-1.1,0.2h-0.2l2.4,3.3h-0.5l-0.7-1l-1.9-2.7c0.3,0,0.5,0.1,0.8,0.1
	c0.3,0,0.5,0,0.8-0.1c0.2-0.1,0.5-0.2,0.6-0.3c0.2-0.2,0.3-0.3,0.4-0.6c0.1-0.2,0.2-0.5,0.2-0.7c0-0.2,0-0.3-0.1-0.5
	c0-0.1-0.1-0.3-0.2-0.4c-0.1-0.1-0.2-0.2-0.3-0.2c-0.1-0.1-0.3-0.1-0.4-0.1c-0.2,0-0.4,0-0.5,0h-1.5c-0.1,2.7-0.2,4.8-0.2,6.6
	L40.7,90.5L40.7,90.5z"/>
<path class="st0" d="M45.7,90.5c0.1-0.9,0.1-2.1,0.2-3.5s0.1-2.6,0.1-3.3h3.9c0,0.1,0,0.2,0,0.4h-0.4h-0.5h-2.6l-0.1,2.8h1.4h1.9
	c0,0.1,0,0.2,0,0.3h-1.9h-1.3l-0.1,3h2.6h0.9c0,0.1,0,0.2,0,0.4L45.7,90.5L45.7,90.5z"/>
<path class="st0" d="M49.9,90.5l1.7-3.3l1.4-2.9l0.3-0.6h0.6l1,2.8l1.5,4.1h-0.5c-0.1-0.3-0.3-0.8-0.5-1.6s-0.5-1.3-0.6-1.7H52
	l-1.6,3.3L49.9,90.5L49.9,90.5z M52.1,86.9h2.6l-1.1-2.9L52.1,86.9z"/>
<path class="st0" d="M58.5,90.5l0.1-1.2l0.2-5.3c-0.8,0-1.5,0-2.2,0c0-0.1,0-0.2,0-0.4h4.7c0,0.1,0,0.2,0,0.4c-0.4,0-1,0-1.8,0h-0.3
	L59,89.5c0,0.1,0,0.2,0,0.2v0.8L58.5,90.5L58.5,90.5z"/>
<path class="st0" d="M61.8,90.5l0.1-2l0.1-3v-1c0-0.3,0-0.5,0-0.8h0.4l-0.1,1.7l-0.1,3.7v1.3H61.8z"/>
<path class="st0" d="M65.7,90.5l-0.2-0.6l-0.1-0.3l-0.3-0.8l-1.9-5.1h0.4l0.3,0.9l2,5.6l2.7-5.3l0.3-0.5c0.1-0.2,0.2-0.4,0.3-0.6
	h0.5c-0.3,0.5-0.7,1.3-1.2,2.2l-1.3,2.6c-0.4,0.8-0.7,1.4-1,2L65.7,90.5L65.7,90.5z"/>
<path class="st0" d="M69.9,90.5l0.1-2l0.1-3v-1c0-0.3,0-0.5,0-0.8h0.5l-0.1,1.7l-0.1,3.7v1.3H69.9z"/>
<path class="st0" d="M73.2,90.5l0.1-1.2l0.2-5.3c-0.8,0-1.5,0-2.2,0c0-0.1,0-0.2,0-0.4H76c0,0.1,0,0.2,0,0.4c-0.4,0-1,0-1.8,0h-0.3
	l-0.2,5.5c0,0.1,0,0.2,0,0.2v0.8H73.2z"/>
<path class="st0" d="M77.7,90.5l0.2-2.2v-0.9l-0.7-1.2l-1.5-2.6h0.4l0.2,0.4l0.4,0.7l1.3,2.3l1.2-1.8l0.7-1.2l0.3-0.4h0.5l-2.5,3.8
	c0,0.2,0,0.3,0,0.5l-0.1,1.3c0,0.2,0,0.4,0,0.6v0.7H77.7z"/>
<path class="st0" d="M83.3,90.5l0.1-0.9l0.3-3.7l0.2-2.2h0.7l0.2,0.7l0.4,1.1l1.3,3.7l0.4,1l2.7-5.9l0.2-0.6h0.7v2.9
	c0,0.7,0,1.2,0,1.5c0,1,0,1.9,0,2.5h-0.5l0.1-4.4c0-0.5,0-1,0-1.4V84l-0.8,1.9l-2,4.6h-0.6l-2.2-6L84.2,84l-0.1,0.6
	c0,0.2,0,0.5-0.1,1l-0.3,3.7c0,0.2,0,0.3,0,0.5s0,0.4,0,0.7L83.3,90.5L83.3,90.5z"/>
<path class="st0" d="M91.7,90.5c0.1-0.9,0.1-2.1,0.2-3.5c0.1-1.4,0.1-2.5,0.1-3.3h3.9c0,0.1,0,0.2,0,0.4h-0.4h-0.5h-2.6l-0.1,2.8
	h1.4h1.9c0,0.1,0,0.2,0,0.3h-1.9h-1.3l-0.1,3h2.6h0.9c0,0.1,0,0.2,0,0.4L91.7,90.5L91.7,90.5z"/>
<path class="st0" d="M96.8,90.5c0.1-0.9,0.1-2.1,0.2-3.5c0.1-1.4,0.1-2.6,0.1-3.3h3.9c0,0.1,0,0.2,0,0.4h-0.4H100h-2.6l-0.1,2.9h1.4
	h1.9c0,0.1,0,0.2,0,0.3h-1.9h-1.3l-0.1,3h2.6h0.9c0,0.1,0,0.2,0,0.4L96.8,90.5L96.8,90.5z"/>
<path class="st0" d="M103.3,90.5l0.1-1.2l0.2-5.3c-0.8,0-1.5,0-2.2,0c0-0.1,0-0.2,0-0.4h4.7c0,0.1,0,0.2,0,0.4c-0.4,0-1,0-1.8,0
	h-0.3l-0.2,5.5c0,0.1,0,0.2,0,0.2v0.8H103.3L103.3,90.5z"/>
<path class="st0" d="M106.1,90.3c0-0.1,0-0.3,0-0.4c0.5,0.3,1.1,0.4,1.7,0.4c0.3,0,0.6,0,0.8-0.1c0.2-0.1,0.4-0.2,0.6-0.4
	c0.1-0.2,0.2-0.4,0.2-0.7c0-0.1,0-0.2-0.1-0.3c0-0.1-0.1-0.2-0.2-0.3c-0.1-0.1-0.2-0.3-0.4-0.4s-0.5-0.5-1-0.8l-0.4-0.3
	c-0.1-0.1-0.3-0.2-0.4-0.4c-0.1-0.1-0.2-0.2-0.3-0.4c-0.1-0.1-0.1-0.2-0.2-0.3c0-0.1-0.1-0.2-0.1-0.3c0-0.1,0-0.2,0-0.3
	c0-0.3,0.1-0.5,0.2-0.8c0.2-0.2,0.4-0.4,0.7-0.6c0.4-0.2,0.7-0.2,1.1-0.2c0.4,0,0.8,0.1,1.2,0.1c0,0.1,0,0.3,0,0.4
	c-0.3-0.1-0.5-0.2-0.8-0.2c-0.2,0-0.4,0-0.6-0.1c-0.3,0-0.6,0-0.8,0.2c-0.2,0.1-0.4,0.3-0.5,0.4c-0.1,0.2-0.2,0.4-0.2,0.6
	c0,0.1,0,0.2,0.1,0.3c0,0.1,0.1,0.2,0.2,0.3c0.1,0.1,0.2,0.2,0.3,0.3l0.4,0.4l0.7,0.6l0.7,0.5c0.1,0.1,0.2,0.2,0.3,0.3
	c0.1,0.1,0.2,0.2,0.3,0.4c0.1,0.1,0.1,0.2,0.2,0.4c0,0.1,0,0.3,0,0.4c0,0.3-0.1,0.6-0.2,0.8c-0.2,0.2-0.4,0.4-0.7,0.5
	c-0.3,0.1-0.7,0.2-1,0.2c-0.2,0-0.5,0-0.7-0.1C106.8,90.5,106.5,90.4,106.1,90.3z"/>
<path class="st0" d="M114.5,90.5l0.1-1.2l0.2-5.3c-0.8,0-1.5,0-2.2,0c0-0.1,0-0.2,0-0.4h4.7c0,0.1,0,0.2,0,0.4c-0.4,0-1,0-1.8,0
	h-0.3l-0.2,5.5c0,0.1,0,0.2,0,0.2v0.8H114.5L114.5,90.5z"/>
<path class="st0" d="M117.7,90.5c0.1-0.9,0.1-2.1,0.2-3.5s0.1-2.5,0.1-3.3h3.9c0,0.1,0,0.2,0,0.4h-0.4h-0.5h-2.6l-0.1,2.8h1.4h1.9
	c0,0.1,0,0.2,0,0.3h-1.9h-1.3l-0.1,3h2.6h0.9c0,0.1,0,0.2,0,0.4L117.7,90.5L117.7,90.5z"/>
<path class="st0" d="M127.9,89.9c0,0.1,0,0.3-0.1,0.4c-0.3,0.1-0.7,0.1-1,0.2c-0.3,0-0.5,0-0.8,0.1c-0.5,0-0.9-0.1-1.4-0.2
	c-0.4-0.1-0.8-0.4-1.1-0.7c-0.3-0.3-0.5-0.7-0.7-1.1c-0.1-0.4-0.2-0.9-0.2-1.3c0-0.5,0.1-1,0.3-1.5c0.3-0.9,1-1.6,1.9-1.9
	c0.5-0.2,1-0.2,1.5-0.2h0.6l0.5,0.1l0.5,0.1c0,0.1,0,0.3,0,0.4c-0.3-0.1-0.7-0.2-1-0.2c-0.3,0-0.5-0.1-0.8-0.1
	c-0.4,0-0.8,0.1-1.2,0.2c-0.4,0.1-0.8,0.4-1.1,0.7c-0.3,0.3-0.6,0.7-0.7,1.1c-0.2,0.4-0.2,0.9-0.2,1.3c0,0.4,0.1,0.9,0.2,1.3
	c0.1,0.4,0.3,0.7,0.6,1c0.3,0.3,0.6,0.5,1,0.6c0.4,0.1,0.8,0.2,1.2,0.2C126.6,90.2,127.3,90.1,127.9,89.9z"/>
<path class="st0" d="M128.9,90.5c0.1-1.4,0.1-2.8,0.2-4c0-1.2,0.1-2.2,0.1-2.8h0.4l-0.1,3.2h4.6l0.1-2.5c0-0.1,0-0.4,0-0.7h0.4
	c-0.1,2.1-0.2,4.4-0.3,6.9h-0.4c0.1-1.2,0.1-2.3,0.1-3.3h-4.7l-0.1,2.5v0.9L128.9,90.5L128.9,90.5z"/>
<path class="st0" d="M135.8,90.5l0.1-2l0.1-4.1v-0.8h0.6l0.4,0.7l0.7,1l2.6,3.7c0.3,0.4,0.5,0.8,0.8,1.1l0.2-5.7v-0.8h0.4l-0.1,1.6
	l-0.2,4.3v1h-0.6l-0.9-1.4l-3.2-4.6l-0.4-0.5c0,0.2,0,0.3,0,0.5l-0.2,4.7v1.2L135.8,90.5L135.8,90.5z"/>
<path class="st0" d="M146.4,83.5c0.5,0,0.9,0.1,1.4,0.2c0.9,0.3,1.5,1,1.8,1.8c0.1,0.4,0.2,0.9,0.2,1.3c0,0.5-0.1,1-0.2,1.5
	c-0.1,0.5-0.4,0.9-0.7,1.2c-0.3,0.3-0.7,0.6-1.2,0.7c-0.9,0.3-2,0.3-2.9,0c-0.4-0.1-0.8-0.4-1.1-0.7c-0.3-0.3-0.5-0.7-0.7-1.1
	c-0.1-0.4-0.2-0.9-0.2-1.3c0-0.5,0.1-1,0.3-1.5c0.2-0.5,0.4-0.9,0.8-1.2c0.3-0.3,0.7-0.6,1.2-0.7C145.5,83.6,145.9,83.5,146.4,83.5z
	 M146.4,83.8c-0.4,0-0.9,0.1-1.3,0.2c-0.4,0.1-0.8,0.4-1.1,0.7c-0.3,0.3-0.5,0.7-0.7,1.1c-0.1,0.4-0.2,0.9-0.2,1.4
	c0,0.4,0.1,0.9,0.2,1.3c0.1,0.4,0.4,0.7,0.6,1c0.3,0.3,0.6,0.5,1,0.6c0.4,0.1,0.8,0.2,1.2,0.2c0.4,0,0.9-0.1,1.3-0.2
	c0.4-0.1,0.7-0.4,1-0.7c0.3-0.3,0.5-0.7,0.6-1.1c0.1-0.4,0.2-0.9,0.2-1.3c0-0.4-0.1-0.9-0.2-1.3c-0.1-0.4-0.3-0.7-0.6-1
	c-0.3-0.3-0.6-0.5-1-0.6C147.2,83.9,146.8,83.9,146.4,83.8L146.4,83.8z"/>
<path class="st0" d="M150.8,90.5l0.1-1.6l0.1-3.6v-1.7h0.4l-0.2,3.9l-0.1,2.6h2.6h0.8c0,0.1,0,0.2,0,0.4H150.8L150.8,90.5z"/>
<path class="st0" d="M158.6,83.5c0.5,0,0.9,0.1,1.4,0.2c0.9,0.3,1.5,1,1.8,1.8c0.1,0.4,0.2,0.9,0.2,1.3c0,0.5-0.1,1-0.2,1.5
	c-0.1,0.5-0.4,0.9-0.7,1.2c-0.3,0.3-0.7,0.6-1.2,0.7c-0.5,0.2-1,0.3-1.5,0.2c-0.5,0-1-0.1-1.4-0.2c-0.4-0.1-0.8-0.4-1.1-0.7
	c-0.3-0.3-0.5-0.7-0.7-1.1c-0.1-0.4-0.2-0.9-0.2-1.3c0-0.5,0.1-1,0.3-1.5c0.2-0.5,0.4-0.9,0.8-1.2c0.3-0.3,0.7-0.6,1.2-0.7
	C157.6,83.6,158.1,83.5,158.6,83.5z M158.6,83.8c-0.4,0-0.9,0.1-1.3,0.2c-0.4,0.1-0.8,0.4-1.1,0.7c-0.3,0.3-0.5,0.7-0.7,1.1
	c-0.1,0.4-0.2,0.9-0.2,1.4c0,0.4,0.1,0.9,0.2,1.3c0.1,0.4,0.4,0.7,0.6,1c0.3,0.3,0.6,0.5,1,0.6c0.4,0.1,0.8,0.2,1.2,0.2
	c0.4,0,0.9-0.1,1.3-0.2c0.4-0.1,0.7-0.4,1-0.7c0.3-0.3,0.5-0.7,0.6-1.1c0.1-0.4,0.2-0.9,0.2-1.3c0-0.4-0.1-0.9-0.2-1.3
	c-0.1-0.4-0.3-0.7-0.6-1c-0.3-0.3-0.6-0.5-1-0.6C159.3,83.9,158.9,83.9,158.6,83.8L158.6,83.8z"/>
<path class="st0" d="M166.7,86.7h2.2l-0.1,1.6l-0.1,1.9c-0.5,0.1-0.9,0.2-1.4,0.3c-0.4,0-0.7,0.1-1.1,0.1c-0.5,0-1-0.1-1.5-0.2
	c-0.4-0.1-0.9-0.4-1.2-0.7c-0.3-0.3-0.6-0.7-0.7-1.1c-0.2-0.4-0.2-0.9-0.2-1.4c0-0.5,0.1-1.1,0.3-1.6c0.4-1,1.1-1.7,2.1-2
	c0.5-0.1,1-0.2,1.5-0.2c0.3,0,0.6,0,0.9,0.1c0.4,0,0.8,0.1,1.1,0.2c0,0.2,0,0.3,0,0.5c-0.4-0.1-0.8-0.2-1.2-0.3
	c-0.3-0.1-0.6-0.1-0.9-0.1c-0.5,0-1,0.1-1.4,0.2c-0.4,0.1-0.8,0.4-1.1,0.7c-0.3,0.3-0.6,0.7-0.7,1.1c-0.2,0.4-0.2,0.9-0.2,1.4
	c0,0.4,0.1,0.9,0.2,1.3c0.1,0.4,0.3,0.7,0.6,1c0.3,0.3,0.6,0.4,1,0.6c0.4,0.1,0.9,0.2,1.4,0.2h0.6l0.6-0.1l0.5-0.1l0.5-0.1l0.1-2.9
	h-1.1h-0.8c0-0.1,0-0.2,0-0.3v0H166.7z"/>
<path class="st0" d="M171.4,90.5l0.1-2.2v-0.9l-0.7-1.2l-1.5-2.6h0.4l0.2,0.4l0.4,0.7l1.3,2.3l1.2-1.8l0.7-1.2l0.3-0.4h0.5l-2.5,3.8
	c0,0.2,0,0.3,0,0.5l-0.1,1.3c0,0.2,0,0.4,0,0.6v0.7H171.4L171.4,90.5z"/>
</svg>
